<svg width="49" height="30" viewBox="0 0 49 30" fill="none" xmlns="http://www.w3.org/2000/svg">
<g clip-path="url(#clip0_126_569)">
<g clip-path="url(#clip1_126_569)">
<path d="M13.5675 10.7496C13.5675 11.3484 13.6323 11.834 13.7456 12.1901C13.875 12.5462 14.0369 12.9346 14.2635 13.3555C14.3444 13.4849 14.3768 13.6144 14.3768 13.7277C14.3768 13.8896 14.2797 14.0514 14.0693 14.2133L13.0496 14.8931C12.9039 14.9902 12.7582 15.0388 12.6287 15.0388C12.4669 15.0388 12.305 14.9578 12.1432 14.8122C11.9166 14.5694 11.7223 14.3104 11.5605 14.0514C11.3986 13.7763 11.2368 13.4688 11.0587 13.0965C9.79624 14.5856 8.21004 15.3301 6.30012 15.3301C4.94052 15.3301 3.85608 14.9417 3.06298 14.1647C2.26988 13.3878 1.86523 12.3519 1.86523 11.0571C1.86523 9.6813 2.35081 8.56448 3.33814 7.72283C4.32546 6.88117 5.63651 6.46034 7.30364 6.46034C7.85395 6.46034 8.42045 6.5089 9.01932 6.58983C9.61819 6.67075 10.2333 6.80024 10.8807 6.94591V5.76435C10.8807 4.53424 10.6217 3.6764 10.12 3.17464C9.60201 2.67288 8.72798 2.4301 7.48168 2.4301C6.91518 2.4301 6.33249 2.49484 5.73362 2.64051C5.13475 2.78618 4.55206 2.96422 3.98556 3.19082C3.72659 3.30412 3.53236 3.36887 3.41906 3.40124C3.30576 3.43361 3.22483 3.4498 3.16009 3.4498C2.93349 3.4498 2.82019 3.28794 2.82019 2.94804V2.15494C2.82019 1.89597 2.85256 1.70174 2.93349 1.58844C3.01442 1.47514 3.16009 1.36184 3.38669 1.24854C3.95319 0.957195 4.63299 0.714409 5.42609 0.52018C6.21919 0.309766 7.06085 0.212652 7.95107 0.212652C9.87717 0.212652 11.2853 0.649666 12.1917 1.52369C13.0819 2.39772 13.5351 3.72495 13.5351 5.50538V10.7496H13.5675ZM6.99611 13.2098C7.53024 13.2098 8.08055 13.1127 8.66324 12.9184C9.24592 12.7242 9.76387 12.3681 10.2009 11.8826C10.4599 11.575 10.6541 11.2351 10.7512 10.8467C10.8483 10.4582 10.9131 9.98883 10.9131 9.43851V8.75871C10.4437 8.64541 9.94191 8.5483 9.42397 8.48356C8.90602 8.41881 8.40427 8.38644 7.90251 8.38644C6.81807 8.38644 6.02496 8.59685 5.49084 9.03387C4.95671 9.47088 4.69774 10.0859 4.69774 10.8952C4.69774 11.656 4.89196 12.2225 5.29661 12.6109C5.68506 13.0156 6.25156 13.2098 6.99611 13.2098ZM19.9932 14.9578C19.7019 14.9578 19.5077 14.9093 19.3782 14.796C19.2487 14.6989 19.1354 14.4723 19.0383 14.1647L15.2346 1.65318C15.1375 1.32947 15.089 1.11905 15.089 1.00575C15.089 0.74678 15.2185 0.601109 15.4774 0.601109H17.0636C17.3712 0.601109 17.5816 0.649666 17.6949 0.762966C17.8244 0.86008 17.9215 1.08668 18.0186 1.39421L20.7378 12.1092L23.2628 1.39421C23.3437 1.07049 23.4408 0.86008 23.5703 0.762966C23.6998 0.665852 23.9264 0.601109 24.2177 0.601109H25.5126C25.8201 0.601109 26.0305 0.649666 26.16 0.762966C26.2895 0.86008 26.4028 1.08668 26.4675 1.39421L29.0249 12.2386L31.825 1.39421C31.9221 1.07049 32.0354 0.86008 32.1487 0.762966C32.2782 0.665852 32.4886 0.601109 32.78 0.601109H34.2852C34.5442 0.601109 34.6899 0.730595 34.6899 1.00575C34.6899 1.08668 34.6737 1.16761 34.6575 1.26472C34.6413 1.36184 34.6089 1.49132 34.5442 1.66937L30.6434 14.1809C30.5463 14.5046 30.433 14.7151 30.3035 14.8122C30.1741 14.9093 29.9636 14.974 29.6885 14.974H28.2965C27.989 14.974 27.7786 14.9255 27.6491 14.8122C27.5196 14.6989 27.4063 14.4885 27.3416 14.1647L24.8328 3.72495L22.3402 14.1486C22.2592 14.4723 22.1621 14.6827 22.0326 14.796C21.9032 14.9093 21.6766 14.9578 21.3852 14.9578H19.9932ZM40.7919 15.3949C39.9502 15.3949 39.1086 15.2977 38.2993 15.1035C37.49 14.9093 36.8588 14.6989 36.4379 14.4561C36.179 14.3104 36.0009 14.1486 35.9362 14.0029C35.8714 13.8572 35.8391 13.6954 35.8391 13.5497V12.7242C35.8391 12.3843 35.9685 12.2225 36.2113 12.2225C36.3084 12.2225 36.4056 12.2386 36.5027 12.271C36.5998 12.3034 36.7455 12.3681 36.9073 12.4329C37.4576 12.6757 38.0565 12.8699 38.6877 12.9994C39.3352 13.1289 39.9664 13.1936 40.6138 13.1936C41.6335 13.1936 42.4267 13.0156 42.977 12.6595C43.5273 12.3034 43.8186 11.7854 43.8186 11.1218C43.8186 10.6686 43.673 10.2964 43.3816 9.98883C43.0903 9.6813 42.5399 9.40614 41.7468 9.14717L39.3999 8.41881C38.2184 8.04654 37.3443 7.49623 36.8102 6.76787C36.2761 6.0557 36.0009 5.2626 36.0009 4.42094C36.0009 3.74114 36.1466 3.14227 36.4379 2.62432C36.7293 2.10638 37.1177 1.65318 37.6033 1.29709C38.0889 0.924823 38.6392 0.649666 39.2866 0.455437C39.934 0.261209 40.6138 0.18028 41.326 0.18028C41.6821 0.18028 42.0544 0.196466 42.4105 0.245023C42.7827 0.29358 43.1226 0.358323 43.4625 0.423066C43.7863 0.503995 44.0938 0.584923 44.3851 0.682038C44.6765 0.779152 44.9031 0.876266 45.0649 0.973381C45.2915 1.10287 45.4534 1.23235 45.5505 1.37802C45.6476 1.50751 45.6962 1.68555 45.6962 1.91215V2.67288C45.6962 3.01278 45.5667 3.19082 45.3239 3.19082C45.1944 3.19082 44.984 3.12608 44.7088 2.9966C43.7862 2.57577 42.7504 2.36535 41.6012 2.36535C40.6786 2.36535 39.9502 2.51102 39.4485 2.81855C38.9467 3.12608 38.6877 3.59547 38.6877 4.25908C38.6877 4.71228 38.8496 5.10074 39.1733 5.40827C39.497 5.7158 40.0959 6.02333 40.9538 6.29848L43.2521 7.02684C44.4175 7.39911 45.2591 7.91705 45.7609 8.58067C46.2627 9.24428 46.5054 10.005 46.5054 10.8467C46.5054 11.5427 46.3598 12.1739 46.0846 12.7242C45.7933 13.2745 45.4048 13.7601 44.9031 14.1486C44.4013 14.5532 43.8024 14.8445 43.1064 15.055C42.3781 15.2816 41.6174 15.3949 40.7919 15.3949Z" fill="black"/>
<path fill-rule="evenodd" clip-rule="evenodd" d="M43.8515 23.2611C38.5264 27.1942 30.7896 29.2822 24.1373 29.2822C14.8143 29.2822 6.41392 25.8346 0.0691122 20.1049C-0.432645 19.6517 0.020555 19.0366 0.619427 19.3927C7.48217 23.3744 15.9473 25.7861 24.7038 25.7861C30.6116 25.7861 37.1021 24.556 43.0746 22.031C43.9648 21.6263 44.7255 22.6137 43.8515 23.2611Z" fill="#FF9900"/>
<path fill-rule="evenodd" clip-rule="evenodd" d="M46.0681 20.7362C45.3883 19.8621 41.5685 20.3153 39.8366 20.5257C39.3187 20.5905 39.2378 20.1373 39.7072 19.7974C42.7501 17.6609 47.7515 18.2759 48.3341 18.9881C48.9168 19.7165 48.1723 24.7178 45.3236 27.1133C44.8866 27.4856 44.4658 27.2914 44.66 26.8058C45.3074 25.2034 46.7479 21.594 46.0681 20.7362Z" fill="#FF9900"/>
</g>
</g>
<defs>
<clipPath id="clip0_126_569">
<rect width="48.7106" height="29.1667" fill="white"/>
</clipPath>
<clipPath id="clip1_126_569">
<rect width="49.2046" height="29.458" fill="white" transform="translate(-0.416992 0.00222874)"/>
</clipPath>
</defs>
</svg>
