<svg width="92" height="55" viewBox="0 0 92 55" fill="none" xmlns="http://www.w3.org/2000/svg">
<g clip-path="url(#clip0_126_1079)">
<g clip-path="url(#clip1_126_1079)">
<path d="M25.8906 19.9013C25.8906 21.01 26.0105 21.9089 26.2203 22.5682C26.46 23.2274 26.7596 23.9466 27.1792 24.7257C27.329 24.9654 27.3889 25.2051 27.3889 25.4149C27.3889 25.7146 27.2091 26.0142 26.8196 26.3139L24.9317 27.5724C24.6621 27.7522 24.3924 27.8421 24.1526 27.8421C23.853 27.8421 23.5533 27.6923 23.2537 27.4226C22.8342 26.9731 22.4746 26.4937 22.1749 26.0142C21.8753 25.5048 21.5756 24.9355 21.246 24.2463C18.9087 27.0031 15.9721 28.3815 12.4361 28.3815C9.91903 28.3815 7.91134 27.6623 6.44303 26.224C4.97472 24.7856 4.22559 22.8678 4.22559 20.4706C4.22559 17.9235 5.12455 15.8559 6.95245 14.2977C8.78034 12.7395 11.2075 11.9604 14.294 11.9604C15.3128 11.9604 16.3616 12.0503 17.4703 12.2001C18.5791 12.3499 19.7178 12.5897 20.9164 12.8594V10.6719C20.9164 8.39449 20.4369 6.80632 19.508 5.87739C18.5491 4.94846 16.931 4.49898 14.6236 4.49898C13.5748 4.49898 12.4961 4.61884 11.3873 4.88853C10.2786 5.15822 9.19986 5.48784 8.15107 5.90736C7.67162 6.11711 7.31203 6.23698 7.10227 6.29691C6.89252 6.35684 6.74269 6.3868 6.62283 6.3868C6.20331 6.3868 5.99355 6.08715 5.99355 5.45787V3.98956C5.99355 3.51011 6.05348 3.15053 6.20331 2.94077C6.35314 2.73101 6.62283 2.52125 7.04234 2.31149C8.09114 1.77212 9.34969 1.32263 10.818 0.963046C12.2863 0.573495 13.8445 0.393702 15.4926 0.393702C19.0585 0.393702 21.6655 1.20277 23.3436 2.82091C24.9917 4.43905 25.8307 6.89622 25.8307 10.1924V19.9013H25.8906ZM13.7247 24.456C14.7135 24.456 15.7323 24.2762 16.8111 23.9166C17.8899 23.557 18.8488 22.8978 19.6578 21.9988C20.1373 21.4295 20.4969 20.8002 20.6766 20.081C20.8564 19.3619 20.9763 18.4929 20.9763 17.474V16.2155C20.1073 16.0057 19.1784 15.8259 18.2195 15.7061C17.2606 15.5862 16.3317 15.5263 15.4027 15.5263C13.395 15.5263 11.9267 15.9158 10.9379 16.7249C9.949 17.534 9.46955 18.6727 9.46955 20.1709C9.46955 21.5793 9.82913 22.6281 10.5783 23.3473C11.2974 24.0964 12.3462 24.456 13.7247 24.456ZM37.787 27.6923C37.2476 27.6923 36.888 27.6024 36.6483 27.3926C36.4085 27.2128 36.1988 26.7933 36.019 26.224L28.9771 3.06063C28.7973 2.46132 28.7074 2.07177 28.7074 1.86201C28.7074 1.38256 28.9471 1.11287 29.4266 1.11287H32.3632C32.9325 1.11287 33.3221 1.20277 33.5319 1.41253C33.7716 1.59232 33.9514 2.01184 34.1312 2.58118L39.1654 22.4184L43.84 2.58118C43.9898 1.98187 44.1696 1.59232 44.4093 1.41253C44.649 1.23274 45.0686 1.11287 45.6079 1.11287H48.0052C48.5745 1.11287 48.9641 1.20277 49.2038 1.41253C49.4435 1.59232 49.6533 2.01184 49.7732 2.58118L54.5077 22.6581L59.6917 2.58118C59.8715 1.98187 60.0813 1.59232 60.291 1.41253C60.5308 1.23274 60.9203 1.11287 61.4597 1.11287H64.2465C64.7259 1.11287 64.9956 1.3526 64.9956 1.86201C64.9956 2.01184 64.9657 2.16167 64.9357 2.34146C64.9057 2.52125 64.8458 2.76098 64.7259 3.0906L57.5042 26.2539C57.3245 26.8532 57.1147 27.2428 56.875 27.4226C56.6353 27.6024 56.2457 27.7222 55.7363 27.7222H53.1593C52.5899 27.7222 52.2004 27.6324 51.9606 27.4226C51.7209 27.2128 51.5112 26.8233 51.3913 26.224L46.7466 6.89622L42.132 26.194C41.9821 26.7933 41.8023 27.1829 41.5626 27.3926C41.3229 27.6024 40.9034 27.6923 40.364 27.6923H37.787ZM76.2926 28.5014C74.7344 28.5014 73.1762 28.3216 71.6779 27.962C70.1797 27.6024 69.011 27.2128 68.2319 26.7634C67.7525 26.4937 67.4228 26.194 67.303 25.9243C67.1831 25.6546 67.1232 25.355 67.1232 25.0853V23.557C67.1232 22.9278 67.3629 22.6281 67.8124 22.6281C67.9922 22.6281 68.172 22.6581 68.3518 22.718C68.5316 22.7779 68.8012 22.8978 69.1009 23.0177C70.1197 23.4671 71.2285 23.8267 72.3971 24.0665C73.5957 24.3062 74.7644 24.426 75.963 24.426C77.8508 24.426 79.3191 24.0964 80.338 23.4372C81.3568 22.7779 81.8962 21.819 81.8962 20.5905C81.8962 19.7514 81.6265 19.0622 81.0871 18.4929C80.5477 17.9235 79.5289 17.4141 78.0606 16.9347L73.7156 15.5862C71.5281 14.897 69.91 13.8782 68.9211 12.5297C67.9322 11.2113 67.4228 9.74294 67.4228 8.18473C67.4228 6.92618 67.6925 5.81746 68.2319 4.85856C68.7713 3.89967 69.4905 3.06063 70.3894 2.40139C71.2884 1.71218 72.3072 1.20277 73.5058 0.843184C74.7045 0.483598 75.963 0.333771 77.2815 0.333771C77.9407 0.333771 78.6299 0.363736 79.2892 0.453633C79.9784 0.543529 80.6077 0.663391 81.2369 0.783253C81.8362 0.933081 82.4056 1.08291 82.945 1.2627C83.4843 1.44249 83.9039 1.62229 84.2035 1.80208C84.623 2.0418 84.9227 2.28153 85.1025 2.55122C85.2823 2.79094 85.3722 3.12056 85.3722 3.54008V4.94846C85.3722 5.57773 85.1324 5.90736 84.683 5.90736C84.4432 5.90736 84.0537 5.78749 83.5443 5.54777C81.8362 4.76867 79.9184 4.37911 77.7909 4.37911C76.0829 4.37911 74.7344 4.6488 73.8055 5.21815C72.8766 5.78749 72.3971 6.65649 72.3971 7.88508C72.3971 8.72411 72.6968 9.44329 73.2961 10.0126C73.8954 10.582 75.0041 11.1513 76.5923 11.6607L80.8474 13.0092C83.0049 13.6984 84.5631 14.6573 85.492 15.8859C86.421 17.1145 86.8704 18.5228 86.8704 20.081C86.8704 21.3696 86.6008 22.5382 86.0913 23.557C85.552 24.5759 84.8328 25.4748 83.9039 26.194C82.9749 26.9431 81.8662 27.4825 80.5777 27.8721C79.2292 28.2916 77.8209 28.5014 76.2926 28.5014Z" fill="white"/>
<path fill-rule="evenodd" clip-rule="evenodd" d="M81.9559 43.0646C72.0972 50.3462 57.7737 54.2117 45.4579 54.2117C28.1977 54.2117 12.6456 47.8291 0.899146 37.2213C-0.0297852 36.3823 0.809249 35.2436 1.91797 35.9028C14.6234 43.2743 30.2953 47.7392 46.5067 47.7392C57.4441 47.7392 69.4603 45.4618 80.5175 40.7872C82.1656 40.0381 83.574 41.866 81.9559 43.0646Z" fill="#FF9900"/>
<path fill-rule="evenodd" clip-rule="evenodd" d="M86.0607 38.39C84.8022 36.7719 77.7303 37.6109 74.524 38.0005C73.5651 38.1203 73.4153 37.2813 74.2843 36.652C79.9178 32.6966 89.1772 33.8352 90.2559 35.1537C91.3347 36.5022 89.9563 45.7615 84.6823 50.1964C83.8733 50.8856 83.0942 50.526 83.4537 49.6271C84.6524 46.6605 87.3193 39.9782 86.0607 38.39Z" fill="#FF9900"/>
</g>
</g>
<defs>
<clipPath id="clip0_126_1079">
<rect width="91.0952" height="54.5455" fill="white"/>
</clipPath>
<clipPath id="clip1_126_1079">
<rect width="91.0952" height="54.5372" fill="white" transform="translate(0 0.00405884)"/>
</clipPath>
</defs>
</svg>
