<svg width="20" height="20" viewBox="0 0 20 20" fill="none" xmlns="http://www.w3.org/2000/svg">
<path d="M17.252 6.10352e-05H2.49269C1.79299 6.10352e-05 1.20261 0.240585 0.721568 0.72163C0.240523 1.20268 0 1.79305 0 2.49275V17.1865C0 17.8862 0.240523 18.4766 0.721568 18.9576C1.20261 19.4387 1.77112 19.6792 2.42709 19.6792H17.252C17.908 19.6792 18.4765 19.4387 18.9576 18.9576C19.4386 18.4766 19.6791 17.8862 19.6791 17.1865V2.42716C19.6791 1.77118 19.4386 1.20268 18.9576 0.72163C18.4765 0.240585 17.8861 6.10352e-05 17.1864 6.10352e-05H17.252ZM1.24635 4.72305C1.24635 4.46067 1.36661 4.22014 1.60713 4.00149C1.84765 3.78283 2.12097 3.6735 2.42709 3.6735H17.252C17.5582 3.6735 17.8315 3.78283 18.072 4.00149C18.3125 4.22014 18.4328 4.46067 18.4328 4.72305V17.3833C18.4328 17.6894 18.3125 17.9409 18.072 18.1377C17.8315 18.3345 17.5582 18.4329 17.252 18.4329H2.49269C2.14284 18.4329 1.84765 18.3345 1.60713 18.1377C1.36661 17.9409 1.24635 17.6894 1.24635 17.3833V4.72305ZM8.00285 8.59329C8.3527 8.59329 8.64789 8.47302 8.88841 8.2325C9.12893 7.99198 9.24919 7.70772 9.24919 7.37974C9.24919 7.05175 9.12893 6.7675 8.88841 6.52698C8.64789 6.28645 8.3527 6.16619 8.00285 6.16619C7.653 6.16619 7.35781 6.28645 7.11729 6.52698C6.87677 6.7675 6.7565 7.05175 6.7565 7.37974C6.7565 7.70772 6.87677 7.99198 7.11729 8.2325C7.35781 8.47302 7.653 8.59329 8.00285 8.59329ZM11.6763 8.59329C12.0261 8.59329 12.3213 8.47302 12.5618 8.2325C12.8024 7.99198 12.9226 7.70772 12.9226 7.37974C12.9226 7.05175 12.8024 6.7675 12.5618 6.52698C12.3213 6.28645 12.0261 6.16619 11.6763 6.16619C11.3264 6.16619 11.0312 6.28645 10.7907 6.52698C10.5502 6.7675 10.4299 7.05175 10.4299 7.37974C10.4299 7.70772 10.5502 7.99198 10.7907 8.2325C11.0312 8.47302 11.3264 8.59329 11.6763 8.59329ZM15.3497 8.59329C15.6996 8.59329 15.9948 8.47302 16.2353 8.2325C16.4758 7.99198 16.5961 7.70772 16.5961 7.37974C16.5961 7.05175 16.4758 6.7675 16.2353 6.52698C15.9948 6.28645 15.7105 6.16619 15.3825 6.16619C15.0545 6.16619 14.7703 6.28645 14.5298 6.52698C14.2892 6.7675 14.169 7.05175 14.169 7.37974C14.169 7.70772 14.2892 7.99198 14.5298 8.2325C14.7703 8.47302 15.0436 8.59329 15.3497 8.59329ZM4.32941 12.2667C4.63553 12.3105 4.90885 12.2121 5.14937 11.9715C5.3899 11.731 5.51016 11.4358 5.51016 11.086C5.51016 10.7361 5.3899 10.4409 5.14937 10.2004C4.90885 9.95989 4.6246 9.83963 4.29661 9.83963C3.96863 9.83963 3.68437 9.95989 3.44385 10.2004C3.20333 10.4409 3.08306 10.7361 3.08306 11.086C3.08306 11.4358 3.20333 11.7201 3.44385 11.9387C3.68437 12.1574 3.97956 12.2667 4.32941 12.2667ZM8.00285 12.2667C8.3527 12.3105 8.64789 12.2121 8.88841 11.9715C9.12893 11.731 9.24919 11.4358 9.24919 11.086C9.24919 10.7361 9.12893 10.4409 8.88841 10.2004C8.64789 9.95989 8.3527 9.83963 8.00285 9.83963C7.653 9.83963 7.35781 9.95989 7.11729 10.2004C6.87677 10.4409 6.7565 10.7361 6.7565 11.086C6.7565 11.4358 6.87677 11.731 7.11729 11.9715C7.35781 12.2121 7.653 12.3105 8.00285 12.2667ZM11.6763 12.2667C12.0261 12.3105 12.3213 12.2121 12.5618 11.9715C12.8024 11.731 12.9226 11.4358 12.9226 11.086C12.9226 10.7361 12.8024 10.4409 12.5618 10.2004C12.3213 9.95989 12.0261 9.83963 11.6763 9.83963C11.3264 9.83963 11.0312 9.95989 10.7907 10.2004C10.5502 10.4409 10.4299 10.7361 10.4299 11.086C10.4299 11.4358 10.5502 11.731 10.7907 11.9715C11.0312 12.2121 11.3264 12.3105 11.6763 12.2667ZM15.3497 12.2667C15.6996 12.3105 15.9948 12.2121 16.2353 11.9715C16.4758 11.731 16.5961 11.4358 16.5961 11.086C16.5961 10.7361 16.4758 10.4409 16.2353 10.2004C15.9948 9.95989 15.7105 9.83963 15.3825 9.83963C15.0545 9.83963 14.7703 9.95989 14.5298 10.2004C14.2892 10.4409 14.169 10.7361 14.169 11.086C14.169 11.4358 14.2892 11.731 14.5298 11.9715C14.7703 12.2121 15.0436 12.3105 15.3497 12.2667ZM4.32941 16.0058C4.63553 16.0058 4.90885 15.8855 5.14937 15.645C5.3899 15.4045 5.51016 15.1093 5.51016 14.7594C5.51016 14.4096 5.3899 14.1144 5.14937 13.8739C4.90885 13.6333 4.6246 13.5131 4.29661 13.5131C3.96863 13.5131 3.68437 13.6333 3.44385 13.8739C3.20333 14.1144 3.08306 14.4096 3.08306 14.7594C3.08306 15.1093 3.20333 15.4045 3.44385 15.645C3.68437 15.8855 3.97956 16.0058 4.32941 16.0058ZM8.00285 16.0058C8.3527 16.0058 8.64789 15.8855 8.88841 15.645C9.12893 15.4045 9.24919 15.1093 9.24919 14.7594C9.24919 14.4096 9.12893 14.1144 8.88841 13.8739C8.64789 13.6333 8.3527 13.5131 8.00285 13.5131C7.653 13.5131 7.35781 13.6333 7.11729 13.8739C6.87677 14.1144 6.7565 14.4096 6.7565 14.7594C6.7565 15.1093 6.87677 15.4045 7.11729 15.645C7.35781 15.8855 7.653 16.0058 8.00285 16.0058ZM11.6763 16.0058C12.0261 16.0058 12.3213 15.8855 12.5618 15.645C12.8024 15.4045 12.9226 15.1093 12.9226 14.7594C12.9226 14.4096 12.8024 14.1144 12.5618 13.8739C12.3213 13.6333 12.0261 13.5131 11.6763 13.5131C11.3264 13.5131 11.0312 13.6333 10.7907 13.8739C10.5502 14.1144 10.4299 14.4096 10.4299 14.7594C10.4299 15.1093 10.5502 15.4045 10.7907 15.645C11.0312 15.8855 11.3264 16.0058 11.6763 16.0058Z" fill="#E53023"/>
</svg>
