<svg width="35" height="35" viewBox="0 0 35 35" fill="none" xmlns="http://www.w3.org/2000/svg">
<circle cx="17.1907" cy="17.1907" r="17.1907" fill="#E53023"/>
<path d="M23.9974 10.9072C24.8483 10.9072 25.5683 11.6272 25.5683 12.4781C25.5683 13.0017 25.3064 13.4599 24.9137 13.7544L17.8122 19.0887C17.4195 19.3833 16.9286 19.3833 16.5359 19.0887L9.4343 13.7544C9.04158 13.4599 8.8125 13.0017 8.8125 12.4781C8.8125 11.6272 9.49975 10.9072 10.3834 10.9072H23.9974ZM15.9141 19.9396C16.6668 20.496 17.6813 20.496 18.434 19.9396L25.5683 14.5725V21.3796C25.5683 22.5577 24.6192 23.474 23.4738 23.474H10.907C9.72883 23.474 8.8125 22.5577 8.8125 21.3796V14.5725L15.9141 19.9396Z" fill="white"/>
</svg>
