<svg width="48" height="48" viewBox="0 0 48 48" fill="none" xmlns="http://www.w3.org/2000/svg">
<rect width="48" height="48" rx="24" fill="white"/>
<path d="M33.822 14.9341C35.0497 14.9341 36.0885 15.9729 36.0885 17.2006C36.0885 17.9561 35.7108 18.6172 35.1441 19.0422L24.8975 26.739C24.3309 27.164 23.6226 27.164 23.0559 26.739L12.8093 19.0422C12.2426 18.6172 11.9121 17.9561 11.9121 17.2006C11.9121 15.9729 12.9037 14.9341 14.1786 14.9341H33.822ZM22.1588 27.9667C23.2448 28.7694 24.7086 28.7694 25.7947 27.9667L36.0885 20.2227V30.0444C36.0885 31.7443 34.7192 33.0664 33.0665 33.0664H14.9342C13.2343 33.0664 11.9121 31.7443 11.9121 30.0444V20.2227L22.1588 27.9667Z" fill="black"/>
</svg>
