<svg width="37" height="30" viewBox="0 0 37 30" fill="none" xmlns="http://www.w3.org/2000/svg">
<g clip-path="url(#clip0_126_587)">
<g clip-path="url(#clip1_126_587)">
<g clip-path="url(#clip2_126_587)">
<path d="M24.1236 8.05405L27.2767 4.90091L27.4862 3.57378C21.7412 -1.6516 12.6079 -1.05839 7.42733 4.80977C5.98827 6.4391 4.92177 8.47137 4.35254 10.5708L5.4814 10.4109L11.7877 9.37158L12.2738 8.87431C15.0783 5.79313 19.8224 5.379 23.0603 7.99968L24.1236 8.05405Z" fill="#EA4335"/>
<path d="M31.7708 10.4765C31.0465 7.80784 29.5578 5.40781 27.4888 3.57221L23.0629 7.99811C24.9321 9.52511 25.9954 11.8244 25.9506 14.2372V15.0223C28.1252 15.0223 29.8888 16.786 29.8888 18.9605C29.8888 21.1351 28.1252 22.8556 25.9506 22.8556H18.063L17.2891 23.6966V28.4215L18.063 29.1635H25.9506C31.6077 29.2082 36.2303 24.7008 36.275 19.0437C36.3022 15.6139 34.6105 12.3984 31.7708 10.4765Z" fill="#4285F4"/>
<path d="M10.1848 29.1634H18.0628V22.8571H10.1848C9.62672 22.8571 9.07668 22.7356 8.56981 22.5038L7.45214 22.8459L4.27662 25.9991L4 27.072C5.78123 28.4167 7.95421 29.173 10.1848 29.1634Z" fill="#34A853"/>
<path d="M10.1839 8.70643C4.52522 8.74 -0.0333937 13.3546 0.000184312 19.0133C0.0193717 22.1728 1.49521 25.1469 3.99917 27.0736L8.56897 22.5038C6.58627 21.6084 5.70525 19.2755 6.60066 17.2928C7.49608 15.3101 9.82895 14.4291 11.8117 15.3245C12.6847 15.7194 13.385 16.4182 13.78 17.2928L18.3498 12.723C16.4054 10.1807 13.3834 8.69523 10.1839 8.70643Z" fill="#FBBC05"/>
</g>
</g>
</g>
<defs>
<clipPath id="clip0_126_587">
<rect width="36.2738" height="29.1667" fill="white"/>
</clipPath>
<clipPath id="clip1_126_587">
<rect width="36.2738" height="29.1667" fill="white" transform="translate(0.000976562 9.53674e-06)"/>
</clipPath>
<clipPath id="clip2_126_587">
<rect width="36.2738" height="29.1601" fill="white" transform="translate(0.000976562 0.00292635)"/>
</clipPath>
</defs>
</svg>
