<svg width="20" height="18" viewBox="0 0 20 18" fill="none" xmlns="http://www.w3.org/2000/svg">
<path d="M20 8.78789C20 8.43233 19.8889 8.14345 19.6667 7.92122C19.4444 7.699 19.1556 7.58789 18.8 7.58789H4.26667L9.6 2.12122C9.95555 1.85456 10.0667 1.47678 9.93333 0.98789C9.8 0.499001 9.51111 0.187889 9.06667 0.0545559C8.62222 -0.0787773 8.22222 0.0323334 7.86667 0.38789L0.4 7.85456C0.133333 8.12122 -1.90735e-06 8.43233 -1.90735e-06 8.78789C-1.90735e-06 9.14345 0.133333 9.45456 0.4 9.72122L7.86667 17.1879C8.13333 17.4546 8.44444 17.5879 8.8 17.5879C9.15555 17.5879 9.44444 17.4546 9.66667 17.1879C9.88889 16.9212 10 16.6101 10 16.2546C10 15.899 9.86667 15.6323 9.6 15.4546L4.26667 9.98789H18.8C19.1556 9.98789 19.4444 9.87678 19.6667 9.65456C19.8889 9.43233 20 9.14345 20 8.78789Z" fill="black"/>
</svg>
