<svg width="40" height="40" viewBox="0 0 40 40" fill="none" xmlns="http://www.w3.org/2000/svg">
<rect width="40" height="40" rx="20" fill="#E53023"/>
<path d="M29 29V22.4C29 21.2 28.9 20.22 28.7 19.46C28.42 18.58 27.98 17.9 27.38 17.42C26.66 16.94 25.7 16.7 24.5 16.7C23.66 16.7 22.92 16.9 22.28 17.3C21.72 17.66 21.3 18.1 21.02 18.62H20.96V17H17.36V29H21.08V23.06C21.08 22.1 21.22 21.38 21.5 20.9C21.86 20.26 22.47 19.94 23.33 19.94C24.19 19.94 24.76 20.3 25.04 21.02C25.2 21.46 25.28 22.16 25.28 23.12V29H29ZM11.3 17H15.02V29H11.3V17ZM13.16 11C12.56 11 12.05 11.21 11.63 11.63C11.21 12.05 11 12.56 11 13.16C11 13.76 11.21 14.27 11.63 14.69C12.05 15.11 12.56 15.32 13.16 15.32C13.76 15.32 14.27 15.11 14.69 14.69C15.11 14.27 15.32 13.76 15.32 13.16C15.32 12.56 15.11 12.05 14.69 11.63C14.27 11.21 13.76 11 13.16 11Z" fill="white"/>
</svg>
