<svg width="6" height="10" viewBox="0 0 6 10" fill="none" xmlns="http://www.w3.org/2000/svg">
<path d="M0.436523 1.33398C0.188418 1.08588 0.188281 0.683632 0.436523 0.435547C0.684438 0.188165 1.08591 0.187749 1.33398 0.435547L5.18457 4.28809L5.18555 4.28711C5.24463 4.34603 5.29225 4.41609 5.32422 4.49316C5.35611 4.57011 5.37109 4.65303 5.37109 4.73633L5.37207 4.73633C5.37216 4.81968 5.35606 4.90247 5.32422 4.97949C5.29224 5.05665 5.24469 5.12755 5.18555 5.18652L5.18457 5.18652L1.33398 9.03711C1.0859 9.2852 0.684612 9.2853 0.436523 9.03711C0.188662 8.78909 0.188208 8.3878 0.436523 8.13965L3.83887 4.7373L0.436523 1.33398Z" fill="#E53023" stroke="#E53023" stroke-width="0.5"/>
</svg>
