<svg width="35" height="35" viewBox="0 0 35 35" fill="none" xmlns="http://www.w3.org/2000/svg">
<circle cx="17.1907" cy="17.1907" r="17.1907" fill="#E53023"/>
<path d="M16.1873 27.4083C14.0131 24.6906 9.16309 18.21 9.16309 14.5306C9.16309 10.0987 12.717 6.50293 17.1908 6.50293C21.6227 6.50293 25.2184 10.0987 25.2184 14.5306C25.2184 18.21 20.3266 24.6906 18.1524 27.4083C17.6507 28.0355 16.689 28.0355 16.1873 27.4083ZM17.1908 17.2065C18.6541 17.2065 19.8666 16.0358 19.8666 14.5306C19.8666 13.0672 18.6541 11.8547 17.1908 11.8547C15.6856 11.8547 14.5149 13.0672 14.5149 14.5306C14.5149 16.0358 15.6856 17.2065 17.1908 17.2065Z" fill="white"/>
</svg>
