<svg width="48" height="48" viewBox="0 0 48 48" fill="none" xmlns="http://www.w3.org/2000/svg">
<rect width="48" height="48" rx="24" fill="white"/>
<path d="M22.9119 35.077C20.5549 32.1307 15.2969 25.1049 15.2969 21.116C15.2969 16.3113 19.1497 12.4131 23.9998 12.4131C28.8046 12.4131 32.7027 16.3113 32.7027 21.116C32.7027 25.1049 27.3994 32.1307 25.0423 35.077C24.4984 35.7569 23.4559 35.7569 22.9119 35.077ZM23.9998 24.017C25.5863 24.017 26.9008 22.7478 26.9008 21.116C26.9008 19.5295 25.5863 18.215 23.9998 18.215C22.368 18.215 21.0988 19.5295 21.0988 21.116C21.0988 22.7478 22.368 24.017 23.9998 24.017Z" fill="black"/>
</svg>
