<svg width="32" height="30" viewBox="0 0 32 30" fill="none" xmlns="http://www.w3.org/2000/svg">
<g clip-path="url(#clip0_126_579)">
<g clip-path="url(#clip1_126_579)">
<path d="M2.81743 -23.9128H27.8469L1.86385 53.0723C1.5968 53.8633 1.08838 54.5507 0.410175 55.0377C-0.268034 55.5247 -1.08189 55.7867 -1.91682 55.7869H-21.3959C-22.0285 55.787 -22.6521 55.6364 -23.2149 55.3477C-23.7778 55.0589 -24.2639 54.6403 -24.6328 54.1265C-25.0018 53.6127 -25.2432 53.0183 -25.3369 52.3927C-25.4306 51.7671 -25.374 51.1282 -25.1718 50.5287L-0.964201 -21.1982C-0.697262 -21.9896 -0.188774 -22.6773 0.489641 -23.1645C1.16806 -23.6516 1.98221 -23.9137 2.81743 -23.9137V-23.9128Z" fill="url(#paint0_linear_126_579)"/>
<path d="M39.1889 27.7236H-0.501807C-0.87081 27.7232 -1.23138 27.834 -1.53655 28.0414C-1.84172 28.2489 -2.07735 28.5434 -2.21272 28.8867C-2.3481 29.23 -2.37696 29.606 -2.29555 29.9659C-2.21413 30.3259 -2.02621 30.6529 -1.75626 30.9045L23.7481 54.7093C24.4906 55.402 25.4684 55.7871 26.4839 55.7869H48.9583L39.1889 27.7236Z" fill="#0078D4"/>
<path d="M2.81722 -23.9128C1.97289 -23.916 1.14964 -23.6492 0.46773 -23.1513C-0.21418 -22.6534 -0.719025 -21.9505 -0.973059 -21.1453L-25.1422 50.4634C-25.358 51.065 -25.4258 51.7097 -25.3397 52.343C-25.2537 52.9763 -25.0164 53.5796 -24.6479 54.1018C-24.2794 54.624 -23.7905 55.0497 -23.2227 55.3431C-22.6548 55.6364 -22.0247 55.7886 -21.3856 55.7869H-1.40371C-0.659496 55.6539 0.0360832 55.3258 0.61198 54.836C1.18788 54.3462 1.62345 53.7124 1.87422 52.9992L6.69401 38.7945L23.9103 54.8525C24.6318 55.4493 25.5368 55.7792 26.4731 55.7869H48.8639L39.0436 27.7236L10.416 27.7304L27.9371 -23.9128H2.81722Z" fill="url(#paint1_linear_126_579)"/>
<path d="M34.7861 -21.202C34.5196 -21.9921 34.0118 -22.6787 33.3344 -23.165C32.657 -23.6513 31.8441 -23.9129 31.0103 -23.9128H3.11523C3.94908 -23.9127 4.76191 -23.6511 5.43927 -23.1648C6.11664 -22.6785 6.62441 -21.992 6.89109 -21.202L31.0997 50.5278C31.302 51.1273 31.3587 51.7664 31.2651 52.3922C31.1715 53.018 30.9302 53.6125 30.5612 54.1265C30.1922 54.6406 29.7061 55.0593 29.1432 55.3482C28.5802 55.6371 27.9566 55.7878 27.3238 55.7879H55.2198C55.8525 55.7877 56.476 55.6369 57.0388 55.3479C57.6017 55.0589 58.0876 54.6401 58.4565 54.1261C58.8254 53.6121 59.0666 53.0177 59.1602 52.392C59.2537 51.7663 59.197 51.1272 58.9947 50.5278L34.7861 -21.202Z" fill="url(#paint2_linear_126_579)"/>
</g>
</g>
<defs>
<linearGradient id="paint0_linear_126_579" x1="11.9399" y1="-18.0067" x2="-14.0538" y2="58.7851" gradientUnits="userSpaceOnUse">
<stop stop-color="#114A8B"/>
<stop offset="1" stop-color="#0669BC"/>
</linearGradient>
<linearGradient id="paint1_linear_126_579" x1="20.0595" y1="17.7803" x2="14.0468" y2="19.8134" gradientUnits="userSpaceOnUse">
<stop stop-opacity="0.3"/>
<stop offset="0.071" stop-opacity="0.2"/>
<stop offset="0.321" stop-opacity="0.1"/>
<stop offset="0.623" stop-opacity="0.05"/>
<stop offset="1" stop-opacity="0"/>
</linearGradient>
<linearGradient id="paint2_linear_126_579" x1="16.7528" y1="-20.2465" x2="45.2861" y2="55.7715" gradientUnits="userSpaceOnUse">
<stop stop-color="#3CCBF4"/>
<stop offset="1" stop-color="#2892DF"/>
</linearGradient>
<clipPath id="clip0_126_579">
<rect width="33.8243" height="31.8741" fill="white"/>
</clipPath>
<clipPath id="clip1_126_579">
<rect width="84.585" height="79.7016" fill="white" transform="translate(-25.3809 -23.9137)"/>
</clipPath>
</defs>
</svg>
