<svg width="48" height="48" viewBox="0 0 48 48" fill="none" xmlns="http://www.w3.org/2000/svg">
<rect width="48" height="48" rx="24" fill="white"/>
<path d="M35.312 29.7769L34.2481 34.2541C34.1152 34.919 33.5832 35.3623 32.9183 35.3623C21.7475 35.318 12.6602 26.2306 12.6602 15.0598C12.6602 14.3949 13.0591 13.863 13.724 13.73L18.2012 12.6661C18.8218 12.5331 19.4867 12.8877 19.7527 13.464L21.8362 18.2958C22.0578 18.8721 21.9248 19.537 21.4372 19.8916L19.0435 21.8421C20.5506 24.9008 23.033 27.3832 26.136 28.8903L28.0865 26.4966C28.4411 26.0533 29.106 25.876 29.6823 26.0976L34.5141 28.1811C35.0904 28.4914 35.445 29.1563 35.312 29.7769Z" fill="black"/>
</svg>
