<svg width="35" height="35" viewBox="0 0 35 35" fill="none" xmlns="http://www.w3.org/2000/svg">
<circle cx="17.1907" cy="17.1907" r="17.1907" fill="#E53023"/>
<path d="M25.891 21.6333L25.0728 25.0767C24.9705 25.5881 24.5614 25.929 24.05 25.929C15.4587 25.8949 8.46973 18.9059 8.46973 10.3146C8.46973 9.80323 8.77656 9.39412 9.28795 9.29184L12.7313 8.47362C13.2086 8.37134 13.72 8.64408 13.9245 9.08728L15.5269 12.8034C15.6973 13.2466 15.5951 13.758 15.22 14.0307L13.379 15.5308C14.5382 17.8832 16.4474 19.7923 18.8339 20.9515L20.3339 19.1105C20.6067 18.7696 21.1181 18.6332 21.5613 18.8037L25.2773 20.406C25.7205 20.6446 25.9933 21.156 25.891 21.6333Z" fill="white"/>
</svg>
