<svg width="20" height="18" viewBox="0 0 20 18" fill="none" xmlns="http://www.w3.org/2000/svg">
<path d="M0 8.78789C0 8.43233 0.111111 8.14345 0.333333 7.92122C0.555556 7.699 0.844444 7.58789 1.2 7.58789H15.7333L10.4 2.12122C10.0444 1.85456 9.93333 1.47678 10.0667 0.98789C10.2 0.499001 10.4889 0.187889 10.9333 0.0545559C11.3778 -0.0787773 11.7778 0.0323334 12.1333 0.38789L19.6 7.85456C19.8667 8.12122 20 8.43233 20 8.78789C20 9.14345 19.8667 9.45456 19.6 9.72122L12.1333 17.1879C11.8667 17.4546 11.5556 17.5879 11.2 17.5879C10.8444 17.5879 10.5556 17.4546 10.3333 17.1879C10.1111 16.9212 10 16.6101 10 16.2546C10 15.899 10.1333 15.6323 10.4 15.4546L15.7333 9.98789H1.2C0.844444 9.98789 0.555556 9.87678 0.333333 9.65456C0.111111 9.43233 0 9.14345 0 8.78789Z" fill="black"/>
</svg>
