<svg width="49" height="49" viewBox="0 0 49 49" fill="none" xmlns="http://www.w3.org/2000/svg">
<rect width="48.1441" height="48.1441" rx="24.072" fill="#E53023"/>
<path d="M31.3304 28.5074C29.7739 28.5074 28.5078 29.7736 28.5078 31.33C28.5078 32.8865 29.7739 34.1526 31.3304 34.1526C32.8868 34.1526 34.153 32.8865 34.153 31.33C34.153 29.7736 32.8868 28.5074 31.3304 28.5074ZM31.3304 33.3462C30.2187 33.3462 29.3143 32.4417 29.3143 31.33C29.3143 30.2183 30.2187 29.3139 31.3304 29.3139C32.4421 29.3139 33.3465 30.2183 33.3465 31.33C33.3465 32.4417 32.4421 33.3462 31.3304 33.3462Z" fill="white"/>
<path d="M31.33 30.1204C30.6631 30.1204 30.1204 30.6631 30.1204 31.33C30.1204 31.997 30.6631 32.5397 31.33 32.5397C31.997 32.5397 32.5397 31.997 32.5397 31.33C32.5397 30.6631 31.997 30.1204 31.33 30.1204ZM31.33 31.7333C31.1079 31.7333 30.9268 31.5522 30.9268 31.33C30.9268 31.1079 31.1079 30.9268 31.33 30.9268C31.5522 30.9268 31.7333 31.1079 31.7333 31.33C31.7333 31.5522 31.5522 31.7333 31.33 31.7333ZM12.6276 21.6526H12.7816V27.701H13.5881V20.8462H12.6276C12.5851 20.8462 12.5434 20.8353 12.5063 20.8146C12.4692 20.794 12.438 20.7642 12.4157 20.7281C12.3933 20.6919 12.3806 20.6507 12.3787 20.6083C12.3767 20.5659 12.3857 20.5237 12.4046 20.4857L13.7683 17.7583C13.8534 17.5885 14.1292 17.5885 14.2139 17.7583L15.5776 20.4857C15.5966 20.5236 15.6055 20.5658 15.6036 20.6082C15.6017 20.6506 15.589 20.6918 15.5667 20.7279C15.5444 20.764 15.5132 20.7938 15.4762 20.8145C15.4392 20.8352 15.3975 20.8461 15.355 20.8462H14.3945V27.701H15.201V21.6526H15.355C15.5349 21.6524 15.7118 21.6063 15.8688 21.5186C16.0259 21.431 16.158 21.3046 16.2526 21.1516C16.3471 20.9986 16.4011 20.824 16.4093 20.6443C16.4175 20.4646 16.3796 20.2858 16.2994 20.1248L14.9357 17.3978C14.7558 17.0377 14.3941 16.8139 13.9913 16.8139C13.5885 16.8139 13.2268 17.0377 13.047 17.3974L11.6833 20.1248C11.603 20.2858 11.5652 20.4646 11.5734 20.6443C11.5816 20.824 11.6355 20.9986 11.7301 21.1516C11.8247 21.3046 11.9567 21.431 12.1138 21.5186C12.2709 21.6063 12.4477 21.6524 12.6276 21.6526ZM18.6921 22.6816C18.872 23.0417 19.2337 23.2655 19.6365 23.2655C20.0393 23.2655 20.401 23.0417 20.5808 22.682L21.9445 19.9546C22.0248 19.7936 22.0626 19.6148 22.0544 19.4351C22.0462 19.2554 21.9923 19.0808 21.8977 18.9278C21.8031 18.7748 21.6711 18.6485 21.514 18.5608C21.3569 18.4731 21.1801 18.427 21.0002 18.4268H20.8462V12.3784H20.0397V19.2333H21.0002C21.0427 19.2333 21.0844 19.2441 21.1215 19.2648C21.1586 19.2854 21.1898 19.3152 21.2121 19.3514C21.2345 19.3875 21.2472 19.4287 21.2491 19.4711C21.2511 19.5135 21.2421 19.5557 21.2232 19.5937L19.8595 22.3212C19.7744 22.4909 19.4986 22.4909 19.4139 22.3212L18.0502 19.5937C18.0312 19.5558 18.0223 19.5136 18.0242 19.4712C18.0261 19.4288 18.0388 19.3876 18.0611 19.3515C18.0834 19.3154 18.1146 19.2856 18.1516 19.2649C18.1886 19.2442 18.2303 19.2333 18.2728 19.2333H19.2333V12.3784H18.4268V18.4268H18.2728C18.0929 18.427 17.916 18.4731 17.759 18.5608C17.6019 18.6485 17.4698 18.7748 17.3752 18.9278C17.2807 19.0808 17.2267 19.2554 17.2185 19.4351C17.2103 19.6148 17.2482 19.7936 17.3284 19.9546L18.6921 22.6816Z" fill="white"/>
<path d="M34.5561 11.572H24.8787C23.767 11.572 22.8626 12.4765 22.8626 13.5882V24.4926C22.0538 24.5567 21.2707 24.807 20.5746 25.2239C19.8786 25.6408 19.2883 26.213 18.8501 26.8958C18.8436 26.8958 18.8372 26.8946 18.8303 26.8946C17.1908 26.8946 15.7118 27.9071 15.0993 29.4031C14.6823 29.2962 14.2464 29.2861 13.8248 29.3734C13.4033 29.4608 13.0073 29.6432 12.667 29.9069C12.3268 30.1706 12.0513 30.5086 11.8615 30.895C11.6718 31.2814 11.5729 31.7061 11.5723 32.1365C11.5723 33.693 12.8384 34.9591 14.3948 34.9591H27.5465L27.7658 35.1785C27.9503 35.3634 28.1885 35.4852 28.4465 35.5265C28.7044 35.5677 28.9687 35.5264 29.2017 35.4083C29.2556 35.3798 29.3152 35.3636 29.3762 35.361C29.4371 35.3583 29.4979 35.3692 29.5541 35.393C29.6061 35.4156 29.659 35.4373 29.7114 35.4579C29.8243 35.5015 29.9118 35.597 29.9517 35.7192C30.033 35.9674 30.1906 36.1836 30.4022 36.3368C30.6137 36.49 30.8683 36.5723 31.1295 36.572H31.5311C31.7924 36.5723 32.047 36.4899 32.2586 36.3366C32.4701 36.1834 32.6278 35.9671 32.709 35.7188C32.7489 35.597 32.8364 35.5019 32.9485 35.4583C33.0017 35.4377 33.0545 35.4164 33.1069 35.3934C33.2166 35.3454 33.3452 35.3515 33.459 35.4087C33.6919 35.5268 33.9563 35.5682 34.2142 35.527C34.4721 35.4857 34.7104 35.3638 34.8948 35.1789L35.1791 34.895C35.3642 34.7106 35.4861 34.4724 35.5274 34.2144C35.5687 33.9565 35.5272 33.6921 35.409 33.4591C35.3806 33.4051 35.3646 33.3455 35.3619 33.2846C35.3593 33.2237 35.3701 33.163 35.3936 33.1067C35.4162 33.0547 35.438 33.0019 35.4586 32.9494C35.5021 32.8365 35.5977 32.749 35.7198 32.7091C35.968 32.6277 36.1841 32.4699 36.3372 32.2583C36.4902 32.0467 36.5725 31.7921 36.5723 31.5309V13.5882C36.5723 12.4765 35.6678 11.572 34.5561 11.572ZM24.8787 12.3785H34.5561C35.2231 12.3785 35.7658 12.9212 35.7658 13.5882V29.9708C35.7497 29.9648 35.7352 29.9567 35.719 29.9511C35.6606 29.9329 35.6069 29.902 35.5619 29.8606C35.5168 29.8192 35.4815 29.7683 35.4586 29.7115C35.4381 29.6582 35.4165 29.6054 35.3936 29.5531C35.3702 29.4969 35.3595 29.4362 35.3621 29.3754C35.3648 29.3145 35.3808 29.255 35.409 29.2011C35.5272 28.9681 35.5687 28.7037 35.5274 28.4458C35.4861 28.1878 35.3642 27.9496 35.1791 27.7652L34.9594 27.5458V13.9914C34.9594 13.5466 34.5977 13.1849 34.1529 13.1849H25.2819C24.8372 13.1849 24.4755 13.5466 24.4755 13.9914V24.6188C24.2104 24.5552 23.9408 24.5124 23.669 24.491V13.5882C23.669 12.9212 24.2118 12.3785 24.8787 12.3785ZM27.9352 27.3414C27.3679 26.2354 26.4282 25.3652 25.2819 24.8845V23.6688H34.1529V27.1281C33.9145 27.101 33.6734 27.1439 33.459 27.2515C33.405 27.2799 33.3454 27.296 33.2845 27.2986C33.2235 27.3013 33.1628 27.2904 33.1065 27.2668C33.0545 27.2442 33.0021 27.2226 32.9493 27.2019C32.8923 27.1789 32.8412 27.1435 32.7997 27.0983C32.7581 27.0531 32.7271 26.9992 32.709 26.9406C32.6276 26.6924 32.4699 26.4763 32.2584 26.3232C32.0468 26.1701 31.7923 26.0878 31.5311 26.0882H31.1295C30.8683 26.0879 30.6137 26.1703 30.4021 26.3236C30.1905 26.4768 30.0329 26.6931 29.9517 26.9414C29.9335 26.9999 29.9025 27.0537 29.8609 27.0987C29.8194 27.1438 29.7683 27.179 29.7114 27.2019C29.6586 27.2224 29.6061 27.2438 29.5537 27.2668C29.4975 27.2903 29.4368 27.3011 29.376 27.2985C29.3151 27.2958 29.2556 27.2798 29.2017 27.2515C29.0022 27.1505 28.779 27.1055 28.556 27.1213C28.333 27.1372 28.1184 27.2132 27.9352 27.3414ZM34.1529 16.4107H25.2819V13.9914H34.1529V16.4107ZM25.2819 17.2172H34.1529V19.6365H25.2819V17.2172ZM25.2819 20.443H34.1529V22.8623H25.2819V20.443ZM12.3787 32.1365C12.3787 31.0248 13.2832 30.1204 14.3948 30.1204C14.6678 30.1201 14.938 30.1755 15.1888 30.2833L15.6077 30.4627L15.7352 30.0252C16.1327 28.6567 17.4057 27.7011 18.8303 27.7011C19.361 27.7008 19.8834 27.8316 20.3514 28.0817C20.8194 28.3318 21.2184 28.6936 21.513 29.1349L22.1832 28.6865C21.6163 27.8394 20.7493 27.2386 19.7569 27.0055C20.1721 26.4701 20.704 26.0365 21.312 25.7378C21.9201 25.4391 22.5883 25.2831 23.2658 25.2817C25.0291 25.2817 26.6336 26.3458 27.3323 27.9502C27.2085 28.1326 27.1357 28.3447 27.1216 28.5647C27.1075 28.7847 27.1525 29.0044 27.2521 29.2011C27.3098 29.3148 27.315 29.443 27.2674 29.5535C27.2448 29.6055 27.2231 29.6583 27.2025 29.7107C27.159 29.8236 27.0634 29.9111 26.9412 29.9511C26.693 30.0324 26.4768 30.1902 26.3237 30.4018C26.1705 30.6134 26.0882 30.868 26.0884 31.1293V31.5309C26.0881 31.7921 26.1705 32.0468 26.3238 32.2583C26.4771 32.4699 26.6933 32.6275 26.9416 32.7087C27.0634 32.7486 27.1586 32.8361 27.2021 32.9482C27.2227 33.0015 27.244 33.0543 27.267 33.1067C27.2904 33.1629 27.3012 33.2236 27.2985 33.2844C27.2959 33.3452 27.2799 33.4048 27.2517 33.4587C27.1441 33.6731 27.1012 33.9143 27.1283 34.1527H14.3948C13.2832 34.1527 12.3787 33.2482 12.3787 32.1365ZM35.7658 31.5309C35.7658 31.7184 35.6461 31.8837 35.4674 31.9426C35.2956 31.9978 35.1382 32.0905 35.0067 32.2141C34.8751 32.3377 34.7727 32.489 34.7069 32.6571C34.69 32.7002 34.6723 32.7434 34.6541 32.7853C34.5832 32.9501 34.5496 33.1285 34.5557 33.3078C34.5617 33.4871 34.6073 33.6628 34.6892 33.8224C34.7739 33.9898 34.7416 34.1914 34.609 34.324L34.3247 34.6083C34.2602 34.6729 34.177 34.7155 34.0869 34.7299C33.9968 34.7443 33.9044 34.7298 33.8231 34.6886C33.6635 34.6067 33.4879 34.561 33.3087 34.555C33.1294 34.5489 32.9511 34.5826 32.7864 34.6535C32.744 34.6716 32.7009 34.6894 32.6569 34.7067C32.489 34.7727 32.3378 34.8752 32.2143 35.0068C32.0908 35.1384 31.998 35.2958 31.9428 35.4676C31.9144 35.5543 31.8593 35.6299 31.7853 35.6834C31.7114 35.7369 31.6224 35.7657 31.5311 35.7656H31.1295C30.942 35.7656 30.7767 35.6458 30.7178 35.4672C30.6626 35.2953 30.5699 35.1379 30.4463 35.0064C30.3227 34.8749 30.1714 34.7725 30.0033 34.7067C29.9603 34.6898 29.9175 34.6722 29.8751 34.6539C29.7243 34.5881 29.5614 34.5542 29.3969 34.5543C29.2061 34.5543 29.015 34.5994 28.838 34.6886C28.6702 34.7728 28.4686 34.741 28.3364 34.6083L28.0521 34.324C27.9875 34.2596 27.9449 34.1764 27.9305 34.0863C27.9161 33.9962 27.9306 33.9038 27.9719 33.8224C28.0538 33.6629 28.0994 33.4872 28.1054 33.308C28.1115 33.1288 28.0779 32.9504 28.0069 32.7857C27.9886 32.7428 27.9708 32.6997 27.9537 32.6563C27.8877 32.4883 27.7852 32.3371 27.6536 32.2136C27.522 32.0901 27.3646 31.9974 27.1928 31.9422C27.106 31.914 27.0304 31.8589 26.9769 31.785C26.9234 31.7111 26.8946 31.6222 26.8948 31.5309V31.1293C26.8948 30.9418 27.0146 30.7765 27.1928 30.7176C27.3647 30.6624 27.5222 30.5697 27.6538 30.4461C27.7854 30.3225 27.8879 30.1712 27.9537 30.0031C27.9707 29.9599 27.9884 29.9168 28.0065 29.8748C28.0774 29.7101 28.1111 29.5317 28.105 29.3524C28.0989 29.1731 28.0533 28.9974 27.9715 28.8377C27.8868 28.6704 27.919 28.4684 28.0517 28.3357L28.3356 28.0519C28.4682 27.9188 28.6698 27.8861 28.8376 27.9716C28.9971 28.0535 29.1728 28.0991 29.352 28.1052C29.5312 28.1113 29.7096 28.0776 29.8743 28.0067C29.917 27.9881 29.9602 27.9704 30.0033 27.9539C30.1713 27.8878 30.3225 27.7853 30.446 27.6537C30.5696 27.5221 30.6624 27.3648 30.7178 27.193C30.7763 27.0144 30.942 26.8946 31.1295 26.8946H31.5311C31.7186 26.8946 31.884 27.0144 31.9428 27.193C31.9981 27.3647 32.0908 27.5221 32.2143 27.6536C32.3378 27.7851 32.489 27.8875 32.6569 27.9535C32.7001 27.9704 32.7432 27.9882 32.7856 28.0063C32.9504 28.0771 33.1288 28.1107 33.308 28.1046C33.4873 28.0986 33.663 28.053 33.8227 27.9712C33.99 27.8861 34.1916 27.9188 34.3247 28.0515L34.6086 28.3353C34.7412 28.468 34.7735 28.67 34.6888 28.8373C34.6069 28.9969 34.5613 29.1725 34.5552 29.3518C34.5492 29.531 34.5828 29.7093 34.6537 29.874C34.6719 29.9164 34.6896 29.9595 34.7069 30.0035C34.7729 30.1714 34.8754 30.3227 35.007 30.4462C35.1386 30.5697 35.296 30.6624 35.4678 30.7176C35.6461 30.7761 35.7658 30.9418 35.7658 31.1293V31.3301V31.5309Z" fill="white"/>
<path d="M26.089 14.7979H26.8954V15.6043H26.089V14.7979ZM27.7019 14.7979H28.5083V15.6043H27.7019V14.7979ZM26.089 21.2495H26.8954V22.0559H26.089V21.2495ZM27.7019 21.2495H28.5083V22.0559H27.7019V21.2495ZM32.5406 18.0237H33.3471V18.8301H32.5406V18.0237ZM30.9277 18.0237H31.7342V18.8301H30.9277V18.0237ZM32.5406 24.4753H33.3471V25.2817H32.5406V24.4753ZM30.9277 24.4753H31.7342V25.2817H30.9277V24.4753ZM23.2664 26.0882C22.9592 26.0882 22.6539 26.1265 22.3592 26.2027L22.5604 26.9837C22.791 26.9243 23.0282 26.8944 23.2664 26.8946C23.8924 26.8942 24.5007 27.102 24.9956 27.4852C25.4906 27.8685 25.844 28.4054 26.0003 29.0116L26.7813 28.8104C26.5804 28.031 26.126 27.3406 25.4897 26.8478C24.8534 26.355 24.0713 26.0877 23.2664 26.0882ZM18.8309 28.5075C18.2735 28.5087 17.7334 28.7018 17.3016 29.0544C16.8698 29.407 16.5726 29.8975 16.46 30.4434L17.2503 30.6039C17.3254 30.24 17.5236 29.9131 17.8115 29.6782C18.0994 29.4433 18.4594 29.3146 18.8309 29.314C19.0816 29.313 19.329 29.3709 19.5532 29.4831C19.7774 29.5952 19.9721 29.7584 20.1217 29.9595L20.7664 29.4753C20.542 29.1737 20.25 28.9291 19.9139 28.761C19.5777 28.5929 19.2068 28.5061 18.8309 28.5075Z" fill="white"/>
</svg>
