<svg width="49" height="49" viewBox="0 0 49 49" fill="none" xmlns="http://www.w3.org/2000/svg">
<rect width="48.1441" height="48.1441" rx="24.072" fill="#E53023"/>
<path d="M32.0463 26.174H15.7196C13.265 26.174 11.2539 24.1787 11.2539 21.6925C11.2539 19.5388 12.8058 17.7019 14.8803 17.306C15.1653 15.1048 17.0498 13.4104 19.3143 13.4104C19.7419 13.4104 20.1536 13.4737 20.5495 13.5846C21.4205 11.2884 23.6375 9.75232 26.1712 9.75232C29.5126 9.75232 32.2205 12.4761 32.2205 15.8016C32.2205 16.2608 32.1571 16.7517 32.0463 17.2268C34.5167 17.2268 36.5278 19.2379 36.5278 21.7083C36.5278 24.1787 34.5325 26.174 32.0463 26.174ZM19.2985 14.2022C17.3348 14.2022 15.7196 15.7224 15.6087 17.6702C15.6087 17.8444 15.4504 18.0028 15.2762 18.0186C13.4392 18.272 12.0299 19.8397 12.0299 21.7083C12.0299 23.7511 13.6768 25.4297 15.7196 25.4297H32.0463C34.0891 25.4297 35.7677 23.7511 35.7677 21.7083C35.7677 19.6655 34.0891 18.0028 32.0463 18.0028C31.9038 18.0028 31.7454 18.0186 31.587 18.0503C31.4604 18.0661 31.3337 18.0186 31.2387 17.9077C31.1595 17.7969 31.1278 17.6702 31.1753 17.5435C31.3653 16.9734 31.4604 16.3717 31.4604 15.8016C31.4604 12.8878 29.085 10.5124 26.1712 10.5124C23.8592 10.5124 21.848 11.9852 21.1354 14.2022C21.1196 14.313 21.0246 14.3764 20.9454 14.4239C20.8504 14.4714 20.7395 14.4714 20.6287 14.4397C20.217 14.2972 19.7577 14.2022 19.2985 14.2022Z" fill="white"/>
<path d="M32.4732 33.6802C32.3782 33.6802 32.2673 33.6327 32.204 33.5693L29.5119 30.8614C29.4327 30.7981 29.401 30.6872 29.401 30.608V25.794C29.401 25.5723 29.5752 25.3981 29.7969 25.3981C30.0028 25.3981 30.1612 25.5723 30.1612 25.794V30.4497L32.7265 33.0151C32.8849 33.1734 32.8849 33.411 32.7265 33.5693C32.6632 33.6327 32.5524 33.6802 32.4732 33.6802ZM33.3283 32.8251C33.2333 32.8251 33.1224 32.7775 33.0591 32.7142L30.7154 30.3863C30.6521 30.323 30.6046 30.2121 30.6046 30.1171V25.794C30.6046 25.5723 30.7787 25.3981 31.0004 25.3981C31.2221 25.3981 31.3963 25.5723 31.3963 25.794V29.9429L33.6134 32.1599C33.7717 32.3183 33.7717 32.5558 33.6134 32.7142C33.5183 32.7934 33.4075 32.8251 33.3283 32.8251ZM15.3072 33.6802C15.2122 33.6802 15.1013 33.6327 15.038 33.5693C14.8796 33.411 14.8796 33.1734 15.038 33.0151L17.6034 30.4497V25.794C17.6034 25.5723 17.7776 25.3981 17.9993 25.3981C18.221 25.3981 18.3952 25.5723 18.3952 25.794V30.608C18.3952 30.7189 18.3477 30.7981 18.2843 30.8614L15.6081 33.5535C15.4972 33.6327 15.4022 33.6802 15.3072 33.6802ZM14.4679 32.8251C14.3729 32.8251 14.262 32.7775 14.1987 32.7142C14.0562 32.5558 14.0562 32.3183 14.1987 32.1599L16.4157 29.9429V25.794C16.4157 25.5723 16.5899 25.3981 16.8116 25.3981C17.0333 25.3981 17.2075 25.5723 17.2075 25.794V30.1171C17.2075 30.228 17.16 30.323 17.0966 30.3863L14.7529 32.73C14.6579 32.7934 14.5471 32.8251 14.4679 32.8251ZM24.4761 30.5764C24.2544 30.5764 24.0802 30.4022 24.0802 30.1805V25.794C24.0802 25.5723 24.2544 25.3981 24.4761 25.3981C24.6978 25.3981 24.872 25.5723 24.872 25.794V30.2121C24.872 30.4022 24.6978 30.5764 24.4761 30.5764ZM23.2884 30.5764C23.0667 30.5764 22.8925 30.4022 22.8925 30.1805V25.794C22.8925 25.5723 23.0667 25.3981 23.2884 25.3981C23.5101 25.3981 23.6843 25.5723 23.6843 25.794V30.2121C23.6843 30.4022 23.5101 30.5764 23.2884 30.5764Z" fill="white"/>
<path d="M13.4704 36.7524C12.1243 36.7524 11 35.6597 11 34.2661C11 32.9043 12.0927 31.7958 13.4704 31.7958C14.8639 31.7958 15.9566 32.8884 15.9566 34.2661C15.9408 35.6597 14.8323 36.7524 13.4704 36.7524ZM13.4704 32.5876C12.5361 32.5876 11.7601 33.3477 11.7601 34.2978C11.7601 35.2321 12.5361 36.0081 13.4704 36.0081C14.4205 36.0081 15.1965 35.2321 15.1965 34.2978C15.1648 33.3477 14.4047 32.5876 13.4704 32.5876ZM23.8903 34.6937C22.5284 34.6937 21.4041 33.5852 21.4041 32.2075C21.4041 30.8456 22.4968 29.7213 23.8903 29.7213C25.2522 29.7213 26.3607 30.8456 26.3607 32.2075C26.3607 33.5694 25.2522 34.6937 23.8903 34.6937ZM23.8903 30.4972C22.9402 30.4972 22.1801 31.2574 22.1801 32.2075C22.1801 33.1576 22.9402 33.9178 23.8903 33.9178C24.8246 33.9178 25.6006 33.1576 25.6006 32.2075C25.6006 31.2574 24.8246 30.4972 23.8903 30.4972ZM34.3103 36.7524C32.9484 36.7524 31.8399 35.6597 31.8399 34.2661C31.8399 32.9043 32.9325 31.7958 34.3103 31.7958C35.7038 31.7958 36.7965 32.8884 36.7965 34.2661C36.7965 35.6597 35.6721 36.7524 34.3103 36.7524ZM34.3103 32.5876C33.3759 32.5876 32.6 33.3477 32.6 34.2978C32.6 35.2321 33.3759 36.0081 34.3103 36.0081C35.2604 36.0081 36.0205 35.2321 36.0205 34.2978C36.0205 33.3477 35.2604 32.5876 34.3103 32.5876ZM28.6886 15.9758C28.4669 15.9758 28.2927 15.8016 28.2927 15.5799C28.2927 14.5348 27.4375 13.6796 26.3607 13.6796C25.5531 13.6796 24.8088 14.2339 24.5396 15.0098C24.4762 15.2157 24.2545 15.3266 24.0645 15.2632C23.8586 15.1999 23.7478 14.9782 23.8111 14.7723C24.1754 13.6796 25.2205 12.9037 26.3607 12.9037C27.8651 12.9037 29.0686 14.123 29.0686 15.5799C29.0686 15.8016 28.9103 15.9758 28.6886 15.9758ZM23.8903 26.1741C23.6686 26.1741 23.4944 25.9999 23.4944 25.7782V22.5002C23.4944 22.2785 23.6686 22.1043 23.8903 22.1043C24.112 22.1043 24.2862 22.2785 24.2862 22.5002V25.794C24.2862 26.0157 24.112 26.1741 23.8903 26.1741ZM21.3091 26.1741C21.1032 26.1741 20.9132 25.9999 20.9132 25.7782V23.9254L19.6305 22.326C19.583 22.2626 19.5355 22.1676 19.5355 22.0884V19.5547C19.5355 19.3488 19.7097 19.1588 19.9314 19.1588C20.1531 19.1588 20.3273 19.3488 20.3273 19.5547V21.9301L21.6258 23.5612C21.6733 23.6245 21.705 23.7037 21.705 23.7987V25.7782C21.6891 26.0157 21.515 26.1741 21.3091 26.1741ZM26.4557 26.1741C26.234 26.1741 26.0598 25.9999 26.0598 25.7782V23.7987C26.0598 23.7037 26.0757 23.6245 26.139 23.5612L27.4692 21.9301V19.5547C27.4692 19.3488 27.6434 19.1588 27.8651 19.1588C28.071 19.1588 28.261 19.3488 28.261 19.5547V22.0568C28.261 22.1518 28.2293 22.2468 28.166 22.3101L26.8516 23.9254V25.794C26.8516 26.0157 26.6774 26.1741 26.4557 26.1741Z" fill="white"/>
<path d="M19.9314 19.9506C19.0921 19.9506 18.4111 19.3013 18.4111 18.462C18.4111 17.6227 19.0921 16.9418 19.9314 16.9418C20.739 16.9418 21.4199 17.6227 21.4199 18.462C21.4199 19.2696 20.7707 19.9506 19.9314 19.9506ZM19.9314 17.7177C19.5196 17.7177 19.1871 18.0503 19.1871 18.462C19.1871 18.8579 19.5196 19.1905 19.9314 19.1905C20.3273 19.1905 20.6598 18.8737 20.6598 18.462C20.6598 18.0503 20.3273 17.7177 19.9314 17.7177ZM27.8651 19.9506C27.0258 19.9506 26.3449 19.3013 26.3449 18.462C26.3449 17.6227 27.0258 16.9418 27.8651 16.9418C28.6727 16.9418 29.3537 17.6227 29.3537 18.462C29.3537 19.2696 28.6727 19.9506 27.8651 19.9506ZM27.8651 17.7177C27.4375 17.7177 27.105 18.0503 27.105 18.462C27.105 18.8579 27.4375 19.1905 27.8651 19.1905C28.261 19.1905 28.5777 18.8737 28.5777 18.462C28.5777 18.0503 28.261 17.7177 27.8651 17.7177ZM23.8903 22.896C23.0669 22.896 22.3859 22.2151 22.3859 21.3758C22.3859 20.5523 23.051 19.8714 23.8903 19.8714C24.7138 19.8714 25.3947 20.5523 25.3947 21.3758C25.3947 22.2151 24.7138 22.896 23.8903 22.896ZM23.8903 20.6315C23.4944 20.6315 23.1619 20.9641 23.1619 21.3758C23.1619 21.8034 23.4944 22.1359 23.8903 22.1359C24.302 22.1359 24.6346 21.8034 24.6346 21.3758C24.6346 20.9957 24.302 20.6315 23.8903 20.6315Z" fill="white"/>
</svg>
