<svg width="49" height="49" viewBox="0 0 49 49" fill="none" xmlns="http://www.w3.org/2000/svg">
<rect width="48.1441" height="48.1441" rx="24.072" fill="#E53023"/>
<path d="M31.0703 29.0753L29.7593 28.8368C29.7071 28.6948 29.6495 28.5549 29.5867 28.4174L30.3443 27.3229C30.4359 27.1905 30.4782 27.0302 30.4637 26.8699C30.4493 26.7096 30.379 26.5595 30.2653 26.4456L28.574 24.7544C28.4602 24.6405 28.31 24.5702 28.1496 24.5559C27.9893 24.5415 27.8289 24.5841 27.6968 24.676L26.6023 25.4323C26.4652 25.3699 26.3254 25.3126 26.1829 25.2604L25.9443 23.9493C25.9155 23.7909 25.832 23.6476 25.7084 23.5445C25.5847 23.4414 25.4288 23.3849 25.2678 23.3849H22.8767C22.7157 23.3849 22.5598 23.4414 22.4362 23.5445C22.3125 23.6476 22.229 23.7909 22.2002 23.9493L21.9623 25.2597C21.8193 25.3124 21.6793 25.3699 21.5423 25.4323L20.4471 24.6753C20.3148 24.5838 20.1547 24.5416 19.9945 24.556C19.8343 24.5704 19.6842 24.6407 19.5705 24.7544L17.8793 26.4456C17.7657 26.5594 17.6955 26.7095 17.6811 26.8696C17.6666 27.0298 17.7088 27.1899 17.8002 27.3222L18.5578 28.4167C18.496 28.5542 18.4375 28.6945 18.3853 28.8361L17.0742 29.0753C16.9158 29.1041 16.7725 29.1877 16.6694 29.3113C16.5662 29.4349 16.5097 29.5908 16.5098 29.7518V32.1429C16.5097 32.304 16.5662 32.4599 16.6694 32.5835C16.7725 32.7071 16.9158 32.7906 17.0742 32.8195L18.3853 33.058C18.4375 33.2003 18.4953 33.3406 18.5578 33.4774L17.8002 34.5712C17.7084 34.7036 17.6661 34.864 17.6805 35.0245C17.695 35.185 17.7653 35.3353 17.8793 35.4491L19.5705 37.1404C19.6844 37.2539 19.8344 37.3239 19.9945 37.3384C20.1546 37.3528 20.3147 37.3107 20.4471 37.2195L21.5423 36.4625C21.6793 36.5248 21.8191 36.5821 21.9616 36.6344L22.2002 37.9455C22.229 38.1039 22.3125 38.2471 22.4362 38.3503C22.5598 38.4534 22.7157 38.5099 22.8767 38.5099H25.2678C25.4288 38.5099 25.5847 38.4534 25.7084 38.3503C25.832 38.2471 25.9155 38.1039 25.9443 37.9455L26.1822 36.6344C26.3252 36.5821 26.4652 36.5248 26.6023 36.4625L27.6968 37.2195C27.8292 37.3109 27.9894 37.3531 28.1497 37.3386C28.31 37.3242 28.4601 37.2541 28.574 37.1404L30.2653 35.4491C30.3792 35.3353 30.4496 35.185 30.464 35.0245C30.4785 34.864 30.4361 34.7036 30.3443 34.5712L29.5874 33.4781C29.6493 33.3406 29.707 33.2003 29.7593 33.0587L31.0703 32.8195C31.2287 32.7906 31.372 32.7071 31.4752 32.5835C31.5783 32.4599 31.6348 32.304 31.6348 32.1429V29.7518C31.6348 29.5908 31.5783 29.4349 31.4752 29.3113C31.372 29.1877 31.2287 29.1041 31.0703 29.0753ZM30.2598 31.5689L29.1116 31.7786C28.9859 31.8012 28.8689 31.8586 28.7739 31.9441C28.679 32.0296 28.6097 32.1399 28.574 32.2626C28.4797 32.5893 28.3499 32.9046 28.187 33.2031C28.1255 33.3151 28.0964 33.4421 28.1031 33.5697C28.1098 33.6974 28.1519 33.8206 28.2248 33.9256L28.8875 34.8826L28.0075 35.7626L27.0498 35.0999C26.9449 35.0272 26.8218 34.9851 26.6943 34.9784C26.5668 34.9718 26.4399 35.0007 26.328 35.0621C26.0294 35.2254 25.7138 35.3555 25.3868 35.4498C25.2642 35.4856 25.154 35.5547 25.0685 35.6495C24.983 35.7444 24.9256 35.8611 24.9028 35.9868L24.6945 37.1349H23.4501L23.2418 35.9868C23.2188 35.8611 23.1614 35.7442 23.0757 35.6494C22.9901 35.5546 22.8798 35.4854 22.7571 35.4498C22.4299 35.3555 22.114 35.2255 21.8152 35.0621C21.7032 35.0007 21.5764 34.9718 21.4489 34.9784C21.3214 34.9851 21.1983 35.0272 21.0933 35.0999L20.1363 35.7626L19.257 34.8826L19.9198 33.9256C19.9924 33.8206 20.0343 33.6975 20.0409 33.57C20.0474 33.4425 20.0183 33.3157 19.9569 33.2038C19.7939 32.9051 19.6641 32.5895 19.5698 32.2626C19.5342 32.14 19.465 32.0297 19.3702 31.9442C19.2753 31.8587 19.1585 31.8014 19.0329 31.7786L17.8848 31.5689V30.3259L19.0329 30.1162C19.1587 30.0935 19.2756 30.0362 19.3706 29.9507C19.4656 29.8652 19.5348 29.7549 19.5705 29.6322C19.6648 29.3055 19.7946 28.9901 19.9576 28.6917C20.0191 28.5796 20.0481 28.4527 20.0414 28.325C20.0347 28.1974 19.9926 28.0742 19.9198 27.9691L19.257 27.0114L20.137 26.1321L21.094 26.7949C21.1991 26.8673 21.3222 26.9092 21.4496 26.9158C21.577 26.9225 21.7038 26.8937 21.8159 26.8327C22.1147 26.6693 22.4305 26.5393 22.7578 26.445C22.8803 26.4092 22.9905 26.3401 23.076 26.2452C23.1615 26.1504 23.2189 26.0336 23.2418 25.908L23.4501 24.7599H24.6945L24.9028 25.908C24.9257 26.0337 24.9832 26.1505 25.0688 26.2454C25.1544 26.3402 25.2647 26.4093 25.3875 26.445C25.7147 26.5393 26.0305 26.6693 26.3293 26.8327C26.4414 26.8937 26.5682 26.9225 26.6956 26.9158C26.823 26.9092 26.9461 26.8673 27.0512 26.7949L28.0082 26.1321L28.8875 27.0121L28.2248 27.9691C28.1522 28.0741 28.1102 28.1973 28.1037 28.3248C28.0971 28.4523 28.1262 28.5791 28.1876 28.691C28.3507 28.9897 28.4805 29.3053 28.5747 29.6322C28.6104 29.7548 28.6795 29.8651 28.7743 29.9506C28.8692 30.0361 28.986 30.0934 29.1116 30.1162L30.2598 30.3259V31.5689Z" fill="white"/>
<path d="M24.0723 27.5099C23.3924 27.5099 22.7278 27.7115 22.1625 28.0892C21.5972 28.4669 21.1566 29.0038 20.8964 29.6319C20.6363 30.26 20.5682 30.9512 20.7008 31.618C20.8335 32.2848 21.1608 32.8973 21.6416 33.3781C22.1223 33.8588 22.7348 34.1862 23.4016 34.3188C24.0685 34.4515 24.7596 34.3834 25.3877 34.1232C26.0159 33.863 26.5527 33.4225 26.9304 32.8572C27.3082 32.2919 27.5098 31.6273 27.5098 30.9474C27.5087 30.036 27.1462 29.1623 26.5017 28.5179C25.8573 27.8735 24.9836 27.511 24.0723 27.5099ZM24.0723 33.0099C23.6643 33.0099 23.2656 32.8889 22.9264 32.6623C22.5872 32.4357 22.3229 32.1135 22.1668 31.7367C22.0107 31.3598 21.9698 30.9451 22.0494 30.545C22.129 30.1449 22.3254 29.7774 22.6139 29.489C22.9023 29.2005 23.2698 29.0041 23.6699 28.9245C24.07 28.8449 24.4847 28.8858 24.8616 29.0419C25.2384 29.198 25.5605 29.4623 25.7872 29.8015C26.0138 30.1407 26.1348 30.5395 26.1348 30.9474C26.1342 31.4942 25.9167 32.0185 25.5301 32.4052C25.1434 32.7919 24.6191 33.0093 24.0723 33.0099Z" fill="white"/>
<path d="M35.7476 18.2005C35.6517 16.8099 35.0321 15.5075 34.0137 14.5558C32.9953 13.6041 31.6538 13.074 30.26 13.0724C29.8343 13.0727 29.4102 13.123 28.9963 13.2223C28.4299 11.9965 27.4776 10.9899 26.2851 10.3565C25.0925 9.72296 23.7253 9.49741 22.3925 9.71427C21.0597 9.93114 19.8345 10.5785 18.9044 11.5574C17.9742 12.5362 17.3901 13.7928 17.2415 15.1349H17.1975C15.6067 15.1368 14.0776 15.7506 12.9269 16.8492C11.7763 17.9477 11.0924 19.4467 11.0168 21.0357C9.83236 21.5128 8.85082 22.3871 8.24065 23.5088C7.63049 24.6305 7.42974 25.9296 7.67286 27.1832C7.91598 28.4368 8.5878 29.5667 9.57305 30.3789C10.5583 31.1912 11.7955 31.6353 13.0725 31.6349H14.4475C14.6298 31.6349 14.8047 31.5625 14.9336 31.4336C15.0625 31.3046 15.135 31.1298 15.135 30.9474C15.135 30.7651 15.0625 30.5902 14.9336 30.4613C14.8047 30.3324 14.6298 30.2599 14.4475 30.2599H13.0725C12.0813 30.2597 11.1233 29.9024 10.374 29.2536C9.6246 28.6048 9.13398 27.7078 8.9919 26.7268C8.84982 25.7458 9.06578 24.7465 9.60025 23.9117C10.1347 23.077 10.9519 22.4626 11.9023 22.1811C12.0486 22.1379 12.1763 22.0473 12.2654 21.9236C12.3545 21.7999 12.3999 21.6501 12.3946 21.4977L12.385 21.3224C12.3806 20.6382 12.5231 19.961 12.8028 19.3365C13.0826 18.712 13.4931 18.1549 14.0067 17.7027C14.5202 17.2505 15.1248 16.9137 15.7796 16.7152C16.4345 16.5167 17.1243 16.461 17.8025 16.5519C17.9006 16.5596 17.9993 16.5467 18.0922 16.5139C18.185 16.4811 18.27 16.4291 18.3415 16.3614C18.4148 16.2922 18.4731 16.2086 18.5128 16.1159C18.5526 16.0232 18.5729 15.9233 18.5725 15.8224C18.5719 14.6814 18.9768 13.5774 19.7151 12.7074C20.4533 11.8375 21.4768 11.2582 22.6026 11.0732C23.7285 10.8881 24.8835 11.1092 25.8614 11.6971C26.8393 12.285 27.5764 13.2013 27.941 14.2824C27.9704 14.3696 28.0171 14.45 28.0781 14.5189C28.1392 14.5877 28.2134 14.6436 28.2965 14.6832C28.3793 14.7232 28.4693 14.7459 28.5611 14.7501C28.6529 14.7542 28.7446 14.7396 28.8307 14.7073C29.4575 14.4733 30.1319 14.3957 30.7955 14.4813C31.459 14.5669 32.0917 14.813 32.6386 15.1984C33.1855 15.5838 33.6302 16.0968 33.934 16.6929C34.2379 17.289 34.3917 17.9502 34.3822 18.6192L34.3774 18.7024C34.3712 18.8629 34.4215 19.0206 34.5195 19.1479C34.6174 19.2752 34.7569 19.3643 34.9137 19.3995C36.2331 19.6979 37.3962 20.4723 38.1805 21.5745C38.9648 22.6768 39.3152 24.0295 39.1646 25.3738C39.0141 26.7182 38.3732 27.9599 37.3645 28.8614C36.3559 29.7628 35.0503 30.2608 33.6975 30.2599C33.5151 30.2599 33.3403 30.3324 33.2113 30.4613C33.0824 30.5902 33.01 30.7651 33.01 30.9474C33.01 31.1298 33.0824 31.3046 33.2113 31.4336C33.3403 31.5625 33.5151 31.6349 33.6975 31.6349C35.3408 31.635 36.9298 31.0462 38.1764 29.9755C39.4229 28.9047 40.2447 27.4228 40.4926 25.7982C40.7405 24.1737 40.3982 22.5141 39.5277 21.1203C38.6572 19.7264 37.3161 18.6906 35.7476 18.2005Z" fill="white"/>
</svg>
