<svg width="49" height="49" viewBox="0 0 49 49" fill="none" xmlns="http://www.w3.org/2000/svg">
<rect width="48.1441" height="48.1441" rx="24.072" fill="#E53023"/>
<path d="M26.8232 25.17C27.8021 25.17 28.7589 24.8797 29.5728 24.3359C30.3867 23.7921 31.0211 23.0191 31.3957 22.1148C31.7702 21.2104 31.8683 20.2153 31.6773 19.2553C31.4863 18.2952 31.015 17.4133 30.3228 16.7212C29.6307 16.029 28.7488 15.5577 27.7887 15.3667C26.8287 15.1757 25.8336 15.2738 24.9292 15.6483C24.0249 16.0229 23.2519 16.6573 22.7081 17.4712C22.1643 18.2851 21.874 19.2419 21.874 20.2208C21.8756 21.5329 22.3976 22.7908 23.3254 23.7186C24.2532 24.6464 25.5111 25.1684 26.8232 25.17ZM26.8232 16.3714C27.5845 16.3714 28.3288 16.5972 28.9618 17.0202C29.5948 17.4431 30.0882 18.0443 30.3796 18.7477C30.6709 19.4511 30.7471 20.2251 30.5986 20.9718C30.4501 21.7185 30.0835 22.4044 29.5451 22.9427C29.0068 23.481 28.3209 23.8477 27.5742 23.9962C26.8275 24.1447 26.0535 24.0685 25.3501 23.7771C24.6467 23.4858 24.0456 22.9924 23.6226 22.3594C23.1996 21.7264 22.9738 20.9821 22.9738 20.2208C22.975 19.2002 23.3809 18.2218 24.1026 17.5002C24.8242 16.7785 25.8026 16.3726 26.8232 16.3714Z" fill="white"/>
<path d="M25.7928 21.8931C25.8438 21.9442 25.9045 21.9848 25.9713 22.0124C26.038 22.0401 26.1096 22.0544 26.1818 22.0544C26.2541 22.0544 26.3257 22.0401 26.3924 22.0124C26.4592 21.9848 26.5198 21.9442 26.5709 21.8931L29.1368 19.3267C29.1879 19.2756 29.2284 19.215 29.2561 19.1483C29.2837 19.0815 29.298 19.01 29.298 18.9378C29.298 18.8656 29.2838 18.794 29.2562 18.7273C29.2286 18.6605 29.1881 18.5999 29.137 18.5488C29.086 18.4977 29.0254 18.4572 28.9587 18.4295C28.8919 18.4019 28.8204 18.3876 28.7482 18.3876C28.676 18.3875 28.6044 18.4017 28.5377 18.4294C28.4709 18.457 28.4103 18.4975 28.3592 18.5485L26.1816 20.7262L25.2874 19.832C25.1837 19.7319 25.0448 19.6764 24.9006 19.6777C24.7564 19.6789 24.6185 19.7368 24.5165 19.8387C24.4146 19.9407 24.3567 20.0786 24.3555 20.2228C24.3542 20.367 24.4097 20.5059 24.5098 20.6096L25.7928 21.8931Z" fill="white"/>
<path d="M9.77613 27.0947C9.77166 27.9627 10.0854 28.8022 10.658 29.4546C11.2306 30.1069 12.0224 30.5269 12.8837 30.635C12.9451 30.6576 13.0101 30.6691 13.0756 30.6691H18.0523C17.361 31.7494 16.973 32.9958 16.9291 34.2776C16.8852 35.5594 17.187 36.8294 17.8028 37.9544C18.4185 39.0795 19.3256 40.0182 20.4289 40.6721C21.5323 41.326 22.7912 41.6711 24.0738 41.6711C25.3563 41.6711 26.6153 41.326 27.7186 40.6721C28.8219 40.0182 29.729 39.0795 30.3448 37.9544C30.9606 36.8294 31.2623 35.5594 31.2184 34.2776C31.1745 32.9958 30.7866 31.7494 30.0953 30.6691H33.9721C34.0299 30.669 34.0873 30.6595 34.1421 30.641C35.3212 30.5285 36.4135 29.9722 37.198 29.0847C37.9824 28.1972 38.4004 27.0449 38.3674 25.8609C38.3343 24.6769 37.8527 23.5496 37.0199 22.7073C36.1872 21.865 35.0655 21.3705 33.882 21.3239C33.9415 20.9592 33.9717 20.5903 33.9721 20.2208C33.9748 18.6686 33.4714 17.1578 32.5381 15.9175C31.6049 14.6772 30.2927 13.775 28.8005 13.3476C27.3083 12.9202 25.7174 12.9909 24.2691 13.5491C22.8207 14.1073 21.5938 15.1224 20.7743 16.4407V11.9721H21.0273C21.2801 11.9727 21.5282 11.9045 21.7452 11.7748C21.9622 11.6452 22.1399 11.4589 22.2592 11.2361C22.3785 11.0132 22.435 10.7621 22.4225 10.5096C22.4101 10.2572 22.3293 10.0128 22.1887 9.80275L20.4372 7.17859C20.2941 6.96203 20.0996 6.78426 19.871 6.66113C19.6425 6.538 19.387 6.47334 19.1274 6.4729C18.8678 6.47247 18.6122 6.53627 18.3832 6.65864C18.1543 6.781 17.9591 6.95811 17.8153 7.17419L16.0555 9.80715C15.9161 10.0176 15.8364 10.2619 15.8249 10.5141C15.8134 10.7662 15.8705 11.0168 15.9902 11.239C16.11 11.4612 16.2878 11.6468 16.5047 11.7759C16.7216 11.905 16.9695 11.9729 17.2219 11.9721H17.4749V18.6035C16.4514 18.7186 15.4898 19.1517 14.7253 19.8419V15.8215H14.9783C15.2311 15.822 15.4792 15.7538 15.6962 15.6242C15.9132 15.4945 16.0909 15.3083 16.2102 15.0854C16.3295 14.8626 16.386 14.6115 16.3735 14.359C16.3611 14.1065 16.2803 13.8622 16.1397 13.6521L14.3882 11.028C14.2451 10.8114 14.0505 10.6336 13.822 10.5105C13.5935 10.3874 13.338 10.3227 13.0784 10.3223C12.8188 10.3218 12.5632 10.3856 12.3342 10.508C12.1053 10.6304 11.9101 10.8075 11.7663 11.0236L10.0065 13.6565C9.86709 13.8669 9.78736 14.1112 9.77586 14.3634C9.76436 14.6156 9.82152 14.8661 9.94125 15.0884C10.061 15.3106 10.2388 15.4962 10.4557 15.6253C10.6726 15.7544 10.9205 15.8222 11.1729 15.8215H11.4259V24.0872C10.9208 24.41 10.5049 24.8546 10.2167 25.3801C9.92838 25.9056 9.77689 26.4952 9.77613 27.0947ZM30.1228 34.5184C30.1237 35.4893 29.8909 36.4461 29.444 37.308C28.9972 38.1699 28.3495 38.9116 27.5556 39.4704C26.7617 40.0292 25.845 40.3887 24.8829 40.5186C23.9208 40.6484 22.9415 40.5448 22.0279 40.2165C21.1143 39.8881 20.2931 39.3447 19.6338 38.6321C18.9744 37.9195 18.4963 37.0586 18.2398 36.1223C17.9832 35.186 17.9558 34.2016 18.1599 33.2525C18.364 32.3033 18.7935 31.4172 19.4122 30.6691H20.9701C20.1723 31.3114 19.5934 32.1854 19.3133 33.1706C19.0332 34.1558 19.0656 35.2036 19.4061 36.1696C19.7467 37.1356 20.3785 37.9721 21.2145 38.5638C22.0505 39.1555 23.0495 39.4733 24.0738 39.4733C25.098 39.4733 26.097 39.1555 26.933 38.5638C27.7691 37.9721 28.4009 37.1356 28.7414 36.1696C29.0819 35.2036 29.1144 34.1558 28.8343 33.1706C28.5542 32.1854 27.9753 31.3114 27.1775 30.6691H28.7354C29.6325 31.7512 30.1232 33.1128 30.1228 34.5184ZM24.0738 30.6691C24.8351 30.6691 25.5793 30.8948 26.2124 31.3178C26.8454 31.7408 27.3388 32.342 27.6301 33.0453C27.9215 33.7487 27.9977 34.5227 27.8492 35.2694C27.7006 36.0161 27.334 36.702 26.7957 37.2403C26.2573 37.7787 25.5715 38.1453 24.8247 38.2938C24.078 38.4424 23.3041 38.3661 22.6007 38.0748C21.8973 37.7834 21.2961 37.29 20.8731 36.657C20.4502 36.024 20.2244 35.2798 20.2244 34.5184C20.2256 33.4979 20.6315 32.5194 21.3532 31.7978C22.0748 31.0762 23.0532 30.6702 24.0738 30.6691ZM17.2219 10.8723C17.1431 10.8723 17.0676 10.841 17.0119 10.7854C16.9562 10.7297 16.925 10.6541 16.925 10.5754C16.9257 10.5176 16.9431 10.4613 16.975 10.4132L18.7347 7.78019C18.7812 7.71991 18.841 7.67119 18.9095 7.6378C18.9779 7.60441 19.0531 7.58726 19.1293 7.58769C19.2054 7.58811 19.2804 7.6061 19.3485 7.64025C19.4165 7.6744 19.4758 7.7238 19.5216 7.78459L21.2692 10.4088C21.3033 10.4572 21.3224 10.5145 21.3242 10.5737C21.3242 10.6525 21.2929 10.728 21.2373 10.7837C21.1816 10.8394 21.106 10.8707 21.0273 10.8707H20.2244C20.0786 10.8707 19.9387 10.9286 19.8356 11.0317C19.7324 11.1349 19.6745 11.2747 19.6745 11.4206V18.862C19.3189 18.7349 18.9499 18.6489 18.5747 18.6057V11.4222C18.5747 11.2764 18.5167 11.1365 18.4136 11.0334C18.3105 10.9303 18.1706 10.8723 18.0248 10.8723H17.2219ZM11.1729 14.7217C11.0941 14.7217 11.0186 14.6904 10.9629 14.6347C10.9072 14.579 10.876 14.5035 10.876 14.4247C10.8762 14.366 10.8936 14.3087 10.926 14.2598L12.6857 11.6268C12.7322 11.5665 12.792 11.5178 12.8605 11.4844C12.9289 11.451 13.0041 11.4339 13.0803 11.4343C13.1564 11.4347 13.2314 11.4527 13.2995 11.4869C13.3675 11.521 13.4268 11.5704 13.4726 11.6312L15.2202 14.2581C15.2543 14.3066 15.2734 14.3639 15.2752 14.4231C15.2752 14.5018 15.2439 14.5774 15.1883 14.6331C15.1326 14.6888 15.057 14.72 14.9783 14.72H14.1754C14.0296 14.72 13.8897 14.778 13.7866 14.8811C13.6834 14.9842 13.6255 15.1241 13.6255 15.27V21.2656C13.2647 21.9624 13.0761 22.7356 13.0756 23.5202V23.5307C12.8902 23.5459 12.7063 23.5758 12.5257 23.6203V15.2716C12.5257 15.1258 12.4677 14.9859 12.3646 14.8828C12.2615 14.7796 12.1216 14.7217 11.9758 14.7217H11.1729ZM13.3505 24.6201C13.4348 24.6198 13.5191 24.624 13.603 24.6327C13.6852 24.6423 13.7686 24.6331 13.8467 24.6056C13.9249 24.5782 13.9957 24.5333 14.0539 24.4743C14.1122 24.4157 14.1565 24.3446 14.1836 24.2664C14.2106 24.1883 14.2196 24.105 14.2101 24.0229C14.1888 23.8561 14.1772 23.6883 14.1754 23.5202C14.1743 22.8419 14.3527 22.1752 14.6927 21.5882C15.0326 21.0011 15.5219 20.5145 16.1108 20.1777C16.6997 19.841 17.3673 19.6662 18.0457 19.6711C18.7241 19.6759 19.3891 19.8603 19.9731 20.2054C19.9841 20.212 19.9967 20.2147 20.0083 20.2202H20.0121C20.0925 20.2604 20.1815 20.2801 20.2713 20.2775C20.3611 20.275 20.4489 20.2503 20.5269 20.2057C20.6048 20.1611 20.6706 20.0979 20.7182 20.0218C20.7659 19.9457 20.7941 19.8589 20.8002 19.7693C20.8593 18.9289 21.0935 18.1101 21.4877 17.3655C21.8819 16.6209 22.4275 15.967 23.0894 15.4457C23.7512 14.9244 24.5148 14.5473 25.331 14.3385C26.1472 14.1297 26.9981 14.0938 27.829 14.2333C28.6599 14.3727 29.4524 14.6843 30.1558 15.1481C30.8591 15.612 31.4577 16.2177 31.9132 16.9265C32.3686 17.6353 32.6708 18.4315 32.8004 19.264C32.9299 20.0965 32.884 20.9468 32.6656 21.7605C32.6423 21.848 32.641 21.9398 32.6617 22.0279C32.6825 22.116 32.7246 22.1976 32.7845 22.2655C32.8443 22.3333 32.92 22.3854 33.0047 22.417C33.0895 22.4487 33.1808 22.4589 33.2705 22.4468C33.412 22.4286 33.5545 22.4198 33.6972 22.4204C34.6243 22.419 35.5157 22.7783 36.1827 23.4223C36.8497 24.0662 37.2401 24.9444 37.2712 25.871C37.3024 26.7977 36.9718 27.7001 36.3496 28.3874C35.7273 29.0747 34.8621 29.493 33.937 29.5538C33.9043 29.5558 33.8719 29.561 33.8402 29.5692H13.2103C13.1821 29.5623 13.1535 29.5575 13.1245 29.5549C12.4978 29.4879 11.9203 29.1843 11.5098 28.706C11.0993 28.2277 10.8867 27.6108 10.9156 26.9812C10.9444 26.3515 11.2124 25.7566 11.6649 25.3178C12.1174 24.8791 12.7203 24.6295 13.3505 24.6201Z" fill="white"/>
<path d="M24.0736 35.0684C24.1745 35.0678 24.2736 35.0951 24.36 35.1471C24.4465 35.1991 24.517 35.2739 24.5637 35.3633C24.6105 35.4527 24.6318 35.5533 24.6252 35.654C24.6187 35.7547 24.5845 35.8516 24.5266 35.9342C24.4686 36.0168 24.3891 36.0818 24.2966 36.1222C24.2041 36.1626 24.1023 36.1768 24.0024 36.1632C23.9024 36.1496 23.8081 36.1087 23.7298 36.0451C23.6515 35.9815 23.5921 35.8976 23.5583 35.8025C23.5351 35.7334 23.4983 35.6697 23.4502 35.615C23.4021 35.5603 23.3436 35.5157 23.2781 35.4837C23.2126 35.4518 23.1414 35.4333 23.0687 35.4291C22.9959 35.4249 22.9231 35.4353 22.8544 35.4595C22.7857 35.4837 22.7224 35.5214 22.6684 35.5702C22.6144 35.6191 22.5706 35.6782 22.5396 35.7442C22.5086 35.8101 22.491 35.8815 22.4878 35.9543C22.4847 36.0271 22.496 36.0998 22.5212 36.1682C22.6221 36.4535 22.7994 36.7055 23.0339 36.8967C23.2684 37.088 23.551 37.211 23.8507 37.2525C24.1504 37.2939 24.4558 37.2521 24.7333 37.1316C25.0109 37.0112 25.25 36.8167 25.4245 36.5695C25.5989 36.3223 25.702 36.0319 25.7225 35.73C25.743 35.4281 25.6801 35.1264 25.5406 34.8579C25.4012 34.5894 25.1906 34.3644 24.9318 34.2075C24.6731 34.0507 24.3762 33.968 24.0736 33.9685C23.9727 33.9691 23.8736 33.9418 23.7872 33.8898C23.7007 33.8378 23.6303 33.763 23.5835 33.6736C23.5367 33.5842 23.5154 33.4836 23.522 33.3829C23.5285 33.2822 23.5627 33.1853 23.6206 33.1027C23.6786 33.0201 23.7582 32.9551 23.8506 32.9147C23.9431 32.8743 24.0449 32.8601 24.1449 32.8737C24.2448 32.8873 24.3391 32.9282 24.4175 32.9918C24.4958 33.0554 24.5551 33.1393 24.5889 33.2344C24.6121 33.3035 24.6489 33.3672 24.697 33.4219C24.7451 33.4766 24.8036 33.5212 24.8691 33.5532C24.9346 33.5851 25.0058 33.6037 25.0786 33.6078C25.1513 33.612 25.2241 33.6016 25.2929 33.5774C25.3616 33.5532 25.4248 33.5156 25.4788 33.4667C25.5329 33.4178 25.5767 33.3587 25.6077 33.2928C25.6387 33.2268 25.6562 33.1554 25.6594 33.0826C25.6625 33.0098 25.6512 32.9371 25.626 32.8687C25.5251 32.5835 25.3478 32.3314 25.1133 32.1402C24.8788 31.9489 24.5963 31.8259 24.2965 31.7844C23.9968 31.743 23.6915 31.7848 23.4139 31.9053C23.1363 32.0257 22.8972 32.2202 22.7228 32.4674C22.5483 32.7146 22.4452 33.005 22.4247 33.3069C22.4042 33.6088 22.4671 33.9105 22.6066 34.179C22.746 34.4475 22.9567 34.6725 23.2154 34.8294C23.4741 34.9862 23.771 35.0689 24.0736 35.0684ZM33.697 28.4694C34.3531 28.4687 34.9821 28.2078 35.446 27.7439C35.9099 27.2799 36.1709 26.6509 36.1716 25.9949C36.1716 25.849 36.1137 25.7091 36.0106 25.606C35.9074 25.5029 35.7676 25.4449 35.6217 25.4449C35.4759 25.4449 35.336 25.5029 35.2329 25.606C35.1297 25.7091 35.0718 25.849 35.0718 25.9949C35.0718 26.3595 34.927 26.7091 34.6691 26.967C34.4113 27.2248 34.0616 27.3696 33.697 27.3696C33.5512 27.3696 33.4113 27.4276 33.3082 27.5307C33.2051 27.6338 33.1471 27.7737 33.1471 27.9195C33.1471 28.0654 33.2051 28.2053 33.3082 28.3084C33.4113 28.4115 33.5512 28.4694 33.697 28.4694Z" fill="white"/>
</svg>
