<svg width="88" height="88" viewBox="0 0 88 88" fill="none" xmlns="http://www.w3.org/2000/svg">
<g filter="url(#filter0_d_126_340)">
<rect x="12" y="12" width="64" height="64" rx="30" fill="#E53023" shape-rendering="crispEdges"/>
<g clip-path="url(#clip0_126_340)">
<g clip-path="url(#clip1_126_340)">
<path d="M34.1251 40.2965C34.1251 40.8535 34.1854 41.3052 34.2907 41.6364C34.4112 41.9676 34.5617 42.3289 34.7725 42.7204C34.8478 42.8408 34.8779 42.9613 34.8779 43.0667C34.8779 43.2172 34.7876 43.3678 34.5919 43.5183L33.6434 44.1506C33.5079 44.241 33.3724 44.2861 33.2519 44.2861C33.1014 44.2861 32.9508 44.2108 32.8003 44.0754C32.5895 43.8495 32.4088 43.6086 32.2583 43.3678C32.1077 43.1118 31.9572 42.8258 31.7916 42.4795C30.6173 43.8646 29.1419 44.5571 27.3654 44.5571C26.1007 44.5571 25.092 44.1958 24.3543 43.4731C23.6166 42.7505 23.2402 41.787 23.2402 40.5825C23.2402 39.3029 23.6919 38.264 24.6103 37.4812C25.5286 36.6983 26.7481 36.3069 28.2988 36.3069C28.8107 36.3069 29.3376 36.352 29.8946 36.4273C30.4517 36.5026 31.0238 36.623 31.626 36.7585V35.6595C31.626 34.5153 31.3851 33.7174 30.9184 33.2507C30.4366 32.784 29.6236 32.5581 28.4644 32.5581C27.9375 32.5581 27.3955 32.6183 26.8384 32.7538C26.2814 32.8893 25.7394 33.0549 25.2125 33.2657C24.9716 33.3711 24.7909 33.4313 24.6855 33.4614C24.5801 33.4915 24.5049 33.5066 24.4446 33.5066C24.2339 33.5066 24.1285 33.3561 24.1285 33.0399V32.3022C24.1285 32.0613 24.1586 31.8806 24.2339 31.7753C24.3092 31.6699 24.4446 31.5645 24.6554 31.4591C25.1824 31.1881 25.8147 30.9623 26.5524 30.7816C27.2901 30.5859 28.073 30.4956 28.901 30.4956C30.6926 30.4956 32.0024 30.9021 32.8454 31.715C33.6735 32.528 34.095 33.7625 34.095 35.4186V40.2965H34.1251ZM28.0127 42.5849C28.5096 42.5849 29.0214 42.4946 29.5634 42.3139C30.1054 42.1332 30.5872 41.802 30.9937 41.3504C31.2345 41.0643 31.4152 40.7482 31.5055 40.3868C31.5959 40.0255 31.6561 39.5889 31.6561 39.077V38.4447C31.2195 38.3393 30.7528 38.249 30.271 38.1888C29.7892 38.1285 29.3225 38.0984 28.8558 38.0984C27.8471 38.0984 27.1094 38.2942 26.6126 38.7006C26.1158 39.1071 25.8749 39.6792 25.8749 40.432C25.8749 41.1396 26.0556 41.6665 26.4319 42.0278C26.7933 42.4042 27.3202 42.5849 28.0127 42.5849ZM40.1021 44.2108C39.8311 44.2108 39.6504 44.1657 39.53 44.0603C39.4095 43.97 39.3041 43.7592 39.2138 43.4731L35.6758 31.8355C35.5855 31.5344 35.5403 31.3387 35.5403 31.2333C35.5403 30.9924 35.6608 30.8569 35.9017 30.8569H37.3771C37.6631 30.8569 37.8588 30.9021 37.9642 31.0074C38.0847 31.0978 38.175 31.3085 38.2653 31.5946L40.7946 41.5611L43.1432 31.5946C43.2185 31.2935 43.3088 31.0978 43.4292 31.0074C43.5497 30.9171 43.7605 30.8569 44.0315 30.8569H45.2359C45.5219 30.8569 45.7176 30.9021 45.8381 31.0074C45.9585 31.0978 46.0639 31.3085 46.1241 31.5946L48.5028 41.6816L51.1074 31.5946C51.1977 31.2935 51.3031 31.0978 51.4085 31.0074C51.5289 30.9171 51.7247 30.8569 51.9957 30.8569H53.3958C53.6367 30.8569 53.7722 30.9773 53.7722 31.2333C53.7722 31.3085 53.7571 31.3838 53.7421 31.4742C53.727 31.5645 53.6969 31.6849 53.6367 31.8505L50.0084 43.4882C49.918 43.7893 49.8126 43.985 49.6922 44.0754C49.5718 44.1657 49.376 44.2259 49.1201 44.2259H47.8254C47.5393 44.2259 47.3436 44.1807 47.2232 44.0754C47.1027 43.97 46.9973 43.7742 46.9371 43.4731L44.6036 33.7625L42.2851 43.4581C42.2098 43.7592 42.1194 43.9549 41.999 44.0603C41.8786 44.1657 41.6678 44.2108 41.3968 44.2108H40.1021ZM59.448 44.6173C58.6651 44.6173 57.8822 44.527 57.1295 44.3463C56.3767 44.1657 55.7896 43.97 55.3981 43.7441C55.1572 43.6086 54.9916 43.4581 54.9314 43.3226C54.8712 43.1871 54.8411 43.0365 54.8411 42.901V42.1332C54.8411 41.8171 54.9615 41.6665 55.1874 41.6665C55.2777 41.6665 55.368 41.6816 55.4583 41.7117C55.5487 41.7418 55.6842 41.802 55.8347 41.8622C56.3466 42.0881 56.9036 42.2687 57.4908 42.3892C58.093 42.5096 58.6802 42.5698 59.2824 42.5698C60.2308 42.5698 60.9685 42.4042 61.4804 42.073C61.9923 41.7418 62.2633 41.26 62.2633 40.6428C62.2633 40.2212 62.1278 39.875 61.8568 39.5889C61.5858 39.3029 61.0739 39.0469 60.3362 38.806L58.1532 38.1285C57.0542 37.7823 56.2412 37.2704 55.7444 36.5929C55.2476 35.9305 54.9916 35.1928 54.9916 34.4099C54.9916 33.7776 55.1271 33.2206 55.3981 32.7388C55.6691 32.257 56.0304 31.8355 56.4821 31.5043C56.9338 31.158 57.4456 30.9021 58.0478 30.7214C58.65 30.5407 59.2824 30.4655 59.9448 30.4655C60.276 30.4655 60.6223 30.4805 60.9535 30.5257C61.2998 30.5708 61.6159 30.6311 61.9321 30.6913C62.2332 30.7666 62.5192 30.8418 62.7902 30.9322C63.0612 31.0225 63.272 31.1128 63.4225 31.2032C63.6333 31.3236 63.7839 31.444 63.8742 31.5795C63.9645 31.7 64.0097 31.8656 64.0097 32.0764V32.784C64.0097 33.1001 63.8893 33.2657 63.6634 33.2657C63.543 33.2657 63.3473 33.2055 63.0913 33.0851C62.2332 32.6936 61.2697 32.4979 60.2007 32.4979C59.3426 32.4979 58.6651 32.6334 58.1984 32.9195C57.7317 33.2055 57.4908 33.6421 57.4908 34.2594C57.4908 34.6809 57.6413 35.0422 57.9425 35.3283C58.2436 35.6143 58.8006 35.9004 59.5985 36.1563L61.7364 36.8338C62.8203 37.1801 63.6032 37.6618 64.0699 38.2791C64.5366 38.8964 64.7625 39.604 64.7625 40.3868C64.7625 41.0342 64.627 41.6214 64.371 42.1332C64.1 42.6451 63.7387 43.0968 63.272 43.4581C62.8053 43.8345 62.2482 44.1055 61.6009 44.3012C60.9234 44.512 60.2158 44.6173 59.448 44.6173Z" fill="white"/>
<path fill-rule="evenodd" clip-rule="evenodd" d="M62.293 51.9342C57.3399 55.5926 50.1435 57.5347 43.9558 57.5347C35.284 57.5347 27.4703 54.3279 21.5687 48.9984C21.102 48.5769 21.5235 48.0048 22.0806 48.336C28.464 52.0396 36.3379 54.2828 44.4827 54.2828C49.9779 54.2828 56.015 53.1386 61.5704 50.79C62.3984 50.4136 63.106 51.332 62.293 51.9342Z" fill="white"/>
<path fill-rule="evenodd" clip-rule="evenodd" d="M64.3551 49.5856C63.7228 48.7726 60.1698 49.1941 58.5589 49.3899C58.0771 49.4501 58.0019 49.0285 58.4385 48.7124C61.2688 46.7251 65.9209 47.2972 66.4629 47.9596C67.0049 48.6371 66.3123 53.2892 63.6626 55.5173C63.2561 55.8636 62.8647 55.6829 63.0453 55.2313C63.6476 53.7408 64.9875 50.3835 64.3551 49.5856Z" fill="white"/>
</g>
</g>
</g>
<defs>
<filter id="filter0_d_126_340" x="0" y="0" width="88" height="88" filterUnits="userSpaceOnUse" color-interpolation-filters="sRGB">
<feFlood flood-opacity="0" result="BackgroundImageFix"/>
<feColorMatrix in="SourceAlpha" type="matrix" values="0 0 0 0 0 0 0 0 0 0 0 0 0 0 0 0 0 0 127 0" result="hardAlpha"/>
<feOffset/>
<feGaussianBlur stdDeviation="6"/>
<feComposite in2="hardAlpha" operator="out"/>
<feColorMatrix type="matrix" values="0 0 0 0 0 0 0 0 0 0 0 0 0 0 0 0 0 0 0.07 0"/>
<feBlend mode="normal" in2="BackgroundImageFix" result="effect1_dropShadow_126_340"/>
<feBlend mode="normal" in="SourceGraphic" in2="effect1_dropShadow_126_340" result="shape"/>
</filter>
<clipPath id="clip0_126_340">
<rect width="45.7678" height="27.4046" fill="white" transform="translate(21.1162 30.2977)"/>
</clipPath>
<clipPath id="clip1_126_340">
<rect width="45.7678" height="27.4005" fill="white" transform="translate(21.1162 30.2999)"/>
</clipPath>
</defs>
</svg>
