<svg width="88" height="88" viewBox="0 0 88 88" fill="none" xmlns="http://www.w3.org/2000/svg">
<g filter="url(#filter0_d_126_348)">
<rect x="12" y="12" width="64" height="64" rx="30" fill="#E53023" shape-rendering="crispEdges"/>
<g clip-path="url(#clip0_126_348)">
<g clip-path="url(#clip1_126_348)">
<path d="M30.3764 5.47456H54.5741L29.4545 79.9011C29.1963 80.6659 28.7048 81.3305 28.0492 81.8013C27.3935 82.2721 26.6067 82.5254 25.7995 82.5256H6.96772C6.35614 82.5256 5.75333 82.3801 5.20917 82.1009C4.665 81.8218 4.19512 81.4171 3.83839 80.9204C3.48167 80.4236 3.24835 79.849 3.15774 79.2442C3.06714 78.6394 3.12185 78.0217 3.31735 77.4422L26.7205 8.09897C26.9785 7.33386 27.4701 6.66899 28.126 6.19801C28.7818 5.72703 29.5689 5.47368 30.3764 5.47363V5.47456Z" fill="white"/>
<path d="M65.5392 55.395H27.1675C26.8108 55.3946 26.4622 55.5017 26.1672 55.7022C25.8722 55.9028 25.6444 56.1875 25.5135 56.5194C25.3826 56.8513 25.3547 57.2149 25.4334 57.5628C25.5121 57.9107 25.6938 58.2269 25.9548 58.4701L50.6115 81.4839C51.3294 82.1535 52.2747 82.5258 53.2564 82.5256H74.9839L65.5392 55.395Z" fill="white"/>
<path d="M30.3764 5.47452C29.5601 5.47138 28.7642 5.72933 28.105 6.21069C27.4457 6.69204 26.9576 7.37158 26.7121 8.15003L3.34612 77.3789C3.13746 77.9605 3.07196 78.5838 3.15514 79.1961C3.23832 79.8083 3.46774 80.3916 3.824 80.8964C4.18025 81.4012 4.65286 81.8129 5.20184 82.0964C5.75082 82.38 6.36002 82.5272 6.97791 82.5255H26.2957C27.0152 82.3969 27.6877 82.0797 28.2444 81.6062C28.8012 81.1328 29.2223 80.52 29.4647 79.8305L34.1243 66.0979L50.7685 81.6222C51.466 82.1991 52.3409 82.5181 53.246 82.5255H74.8927L65.3988 55.3949L37.7227 55.4014L54.6614 5.47452H30.3764Z" fill="white"/>
<path d="M61.2814 8.0953C61.0237 7.33143 60.5329 6.66766 59.878 6.19751C59.2231 5.72735 58.4372 5.47452 57.6311 5.47461H30.6631C31.4692 5.47466 32.255 5.72755 32.9099 6.19768C33.5647 6.66781 34.0556 7.3315 34.3135 8.0953L57.7175 77.4413C57.9131 78.0209 57.968 78.6387 57.8774 79.2437C57.7869 79.8487 57.5536 80.4235 57.1969 80.9204C56.8402 81.4174 56.3703 81.8222 55.826 82.1015C55.2818 82.3808 54.6788 82.5265 54.0671 82.5265H81.036C81.6477 82.5263 82.2505 82.3805 82.7946 82.1012C83.3387 81.8218 83.8086 81.417 84.1652 80.92C84.5218 80.4231 84.755 79.8484 84.8455 79.2435C84.9359 78.6386 84.8811 78.0208 84.6855 77.4413L61.2814 8.0953Z" fill="white"/>
</g>
</g>
</g>
<defs>
<filter id="filter0_d_126_348" x="0" y="0" width="88" height="88" filterUnits="userSpaceOnUse" color-interpolation-filters="sRGB">
<feFlood flood-opacity="0" result="BackgroundImageFix"/>
<feColorMatrix in="SourceAlpha" type="matrix" values="0 0 0 0 0 0 0 0 0 0 0 0 0 0 0 0 0 0 127 0" result="hardAlpha"/>
<feOffset/>
<feGaussianBlur stdDeviation="6"/>
<feComposite in2="hardAlpha" operator="out"/>
<feColorMatrix type="matrix" values="0 0 0 0 0 0 0 0 0 0 0 0 0 0 0 0 0 0 0.07 0"/>
<feBlend mode="normal" in2="BackgroundImageFix" result="effect1_dropShadow_126_348"/>
<feBlend mode="normal" in="SourceGraphic" in2="effect1_dropShadow_126_348" result="shape"/>
</filter>
<clipPath id="clip0_126_348">
<rect width="32.7002" height="30.8148" fill="white" transform="translate(27.6504 28.5927)"/>
</clipPath>
<clipPath id="clip1_126_348">
<rect width="81.774" height="77.0528" fill="white" transform="translate(3.11523 5.47363)"/>
</clipPath>
</defs>
</svg>
