<svg width="70" height="70" viewBox="0 0 70 70" fill="none" xmlns="http://www.w3.org/2000/svg">
<circle cx="35" cy="35" r="35" fill="#E53023"/>
<path d="M32.8315 45.1199V42.2285C32.8315 41.0329 31.8585 40.0599 30.6629 40.0599V38.6143C31.8585 38.6143 32.8315 37.6413 32.8315 36.4457V33.5543C32.8315 32.3587 31.8585 31.3858 30.6629 31.3858V29.9401C31.8585 29.9401 32.8315 28.9671 32.8315 27.7716V24.8802C32.8315 23.6846 31.8585 22.7116 30.6629 22.7116H14.7603C13.5647 22.7116 12.5918 23.6846 12.5918 24.8802V27.7716C12.5918 28.9671 13.5647 29.9401 14.7603 29.9401V31.3858C13.5647 31.3858 12.5918 32.3587 12.5918 33.5543V36.4457C12.5918 37.6413 13.5647 38.6143 14.7603 38.6143V40.0599C13.5647 40.0599 12.5918 41.0329 12.5918 42.2285V45.1199C12.5918 46.3155 13.5647 47.2884 14.7603 47.2884H30.6629C31.8585 47.2884 32.8315 46.3155 32.8315 45.1199ZM14.0375 27.7716V24.8802C14.0375 24.6885 14.1136 24.5046 14.2492 24.369C14.3848 24.2335 14.5686 24.1573 14.7603 24.1573H30.6629C30.8547 24.1573 31.0385 24.2335 31.1741 24.369C31.3096 24.5046 31.3858 24.6885 31.3858 24.8802V27.7716C31.3858 27.9633 31.3096 28.1471 31.1741 28.2827C31.0385 28.4183 30.8547 28.4944 30.6629 28.4944H14.7603C14.5686 28.4944 14.3848 28.4183 14.2492 28.2827C14.1136 28.1471 14.0375 27.9633 14.0375 27.7716ZM16.206 29.9401H29.2173V31.3858H16.206V29.9401ZM14.0375 36.4457V33.5543C14.0375 33.3626 14.1136 33.1788 14.2492 33.0432C14.3848 32.9076 14.5686 32.8315 14.7603 32.8315H30.6629C30.8547 32.8315 31.0385 32.9076 31.1741 33.0432C31.3096 33.1788 31.3858 33.3626 31.3858 33.5543V36.4457C31.3858 36.6374 31.3096 36.8213 31.1741 36.9568C31.0385 37.0924 30.8547 37.1686 30.6629 37.1686H14.7603C14.5686 37.1686 14.3848 37.0924 14.2492 36.9568C14.1136 36.8213 14.0375 36.6374 14.0375 36.4457ZM16.206 38.6143H29.2173V40.0599H16.206V38.6143ZM14.0375 45.1199V42.2285C14.0375 42.0368 14.1136 41.8529 14.2492 41.7174C14.3848 41.5818 14.5686 41.5056 14.7603 41.5056H30.6629C30.8547 41.5056 31.0385 41.5818 31.1741 41.7174C31.3096 41.8529 31.3858 42.0368 31.3858 42.2285V45.1199C31.3858 45.3116 31.3096 45.4954 31.1741 45.631C31.0385 45.7666 30.8547 45.8427 30.6629 45.8427H14.7603C14.5686 45.8427 14.3848 45.7666 14.2492 45.631C14.1136 45.4954 14.0375 45.3116 14.0375 45.1199ZM57.4082 27.7716V24.8802C57.4082 23.6846 56.4353 22.7116 55.2397 22.7116H39.3371C38.1415 22.7116 37.1686 23.6846 37.1686 24.8802V27.7716C37.1686 28.9671 38.1415 29.9401 39.3371 29.9401V31.3858C38.1415 31.3858 37.1686 32.3587 37.1686 33.5543V36.4457C37.1686 37.6413 38.1415 38.6143 39.3371 38.6143V40.0599C38.1415 40.0599 37.1686 41.0329 37.1686 42.2285V45.1199C37.1686 46.3155 38.1415 47.2884 39.3371 47.2884H55.2397C56.4353 47.2884 57.4082 46.3155 57.4082 45.1199V42.2285C57.4082 41.0329 56.4353 40.0599 55.2397 40.0599V38.6143C56.4353 38.6143 57.4082 37.6413 57.4082 36.4457V33.5543C57.4082 32.3587 56.4353 31.3858 55.2397 31.3858V29.9401C56.4353 29.9401 57.4082 28.9671 57.4082 27.7716ZM38.6143 27.7716V24.8802C38.6143 24.6885 38.6904 24.5046 38.826 24.369C38.9615 24.2335 39.1454 24.1573 39.3371 24.1573H55.2397C55.4314 24.1573 55.6153 24.2335 55.7508 24.369C55.8864 24.5046 55.9626 24.6885 55.9626 24.8802V27.7716C55.9626 27.9633 55.8864 28.1471 55.7508 28.2827C55.6153 28.4183 55.4314 28.4944 55.2397 28.4944H39.3371C39.1454 28.4944 38.9615 28.4183 38.826 28.2827C38.6904 28.1471 38.6143 27.9633 38.6143 27.7716ZM55.9626 42.2285V45.1199C55.9626 45.3116 55.8864 45.4954 55.7508 45.631C55.6153 45.7666 55.4314 45.8427 55.2397 45.8427H39.3371C39.1454 45.8427 38.9615 45.7666 38.826 45.631C38.6904 45.4954 38.6143 45.3116 38.6143 45.1199V42.2285C38.6143 42.0368 38.6904 41.8529 38.826 41.7174C38.9615 41.5818 39.1454 41.5056 39.3371 41.5056H55.2397C55.4314 41.5056 55.6153 41.5818 55.7508 41.7174C55.8864 41.8529 55.9626 42.0368 55.9626 42.2285ZM53.794 40.0599H40.7828V38.6143H53.794V40.0599ZM55.9626 33.5543V36.4457C55.9626 36.6374 55.8864 36.8213 55.7508 36.9568C55.6153 37.0924 55.4314 37.1686 55.2397 37.1686H39.3371C39.1454 37.1686 38.9615 37.0924 38.826 36.9568C38.6904 36.8213 38.6143 36.6374 38.6143 36.4457V33.5543C38.6143 33.3626 38.6904 33.1788 38.826 33.0432C38.9615 32.9076 39.1454 32.8315 39.3371 32.8315H55.2397C55.4314 32.8315 55.6153 32.9076 55.7508 33.0432C55.8864 33.1788 55.9626 33.3626 55.9626 33.5543ZM53.794 31.3858H40.7828V29.9401H53.794V31.3858ZM45.1199 15.4832V14.6194L48.8158 16.9289L45.1199 19.2384V18.3746C45.1199 18.1829 45.0437 17.999 44.9081 17.8634C44.7726 17.7279 44.5887 17.6517 44.397 17.6517H21.2659V19.0974H43.6742V20.5431C43.6742 20.6721 43.7087 20.7988 43.7742 20.91C43.8397 21.0212 43.9337 21.1128 44.0466 21.1753C44.1595 21.2379 44.287 21.2691 44.416 21.2657C44.545 21.2623 44.6707 21.2245 44.7801 21.1561L50.5629 17.5418C50.6669 17.4769 50.7526 17.3865 50.812 17.2793C50.8714 17.1721 50.9026 17.0515 50.9026 16.9289C50.9026 16.8063 50.8714 16.6857 50.812 16.5785C50.7526 16.4712 50.6669 16.3809 50.5629 16.3159L44.7801 12.7017C44.6707 12.6333 44.545 12.5954 44.416 12.592C44.287 12.5887 44.1595 12.6199 44.0466 12.6824C43.9337 12.745 43.8397 12.8366 43.7742 12.9478C43.7087 13.0589 43.6742 13.1856 43.6742 13.3146V14.7603H19.8203V16.206H44.397C44.5887 16.206 44.7726 16.1299 44.9081 15.9943C45.0437 15.8588 45.1199 15.6749 45.1199 15.4832ZM24.8802 54.5169V55.3807L21.1843 53.0712L24.8802 50.7617V51.6255C24.8802 51.8172 24.9563 52.001 25.0919 52.1366C25.2275 52.2722 25.4113 52.3483 25.603 52.3483H48.7341V50.9026H26.3259V49.4569C26.326 49.3278 26.2914 49.201 26.2259 49.0897C26.1604 48.9784 26.0662 48.8867 25.9533 48.8242C25.8403 48.7616 25.7126 48.7304 25.5835 48.7339C25.4544 48.7374 25.3286 48.7754 25.2192 48.844L19.4364 52.4582C19.3328 52.5235 19.2475 52.614 19.1884 52.7212C19.1292 52.8284 19.0982 52.9489 19.0983 53.0714C19.0984 53.1938 19.1295 53.3143 19.1888 53.4214C19.248 53.5286 19.3335 53.619 19.4371 53.6841L25.2199 57.2984C25.3293 57.3668 25.4551 57.4046 25.5841 57.408C25.713 57.4114 25.8406 57.3802 25.9534 57.3176C26.0663 57.2551 26.1603 57.1635 26.2258 57.0523C26.2913 56.9411 26.3259 56.8144 26.3259 56.6854V55.2397H50.1798V53.794H25.603C25.4113 53.794 25.2275 53.8702 25.0919 54.0057C24.9563 54.1413 24.8802 54.3252 24.8802 54.5169ZM50.1798 50.9026H51.6255V52.3483H50.1798V50.9026ZM53.0712 50.9026H54.5169V52.3483H53.0712V50.9026ZM18.3746 17.6517H19.8203V19.0974H18.3746V17.6517ZM15.4832 17.6517H16.9289V19.0974H15.4832V17.6517Z" fill="white"/>
</svg>
