<svg width="8" height="5" viewBox="0 0 8 5" fill="none" xmlns="http://www.w3.org/2000/svg">
<path d="M3.72585 4.06456C3.68136 4.0646 3.63731 4.05586 3.59621 4.03883C3.55511 4.0218 3.51779 3.99681 3.48638 3.96531L0.0992636 0.578201C-0.0330879 0.44585 -0.0330879 0.23153 0.0992636 0.0992636C0.231615 -0.0330032 0.445934 -0.0330879 0.578201 0.0992636L3.72585 3.24691L6.87349 0.0992636C7.00584 -0.0330879 7.22016 -0.0330879 7.35243 0.0992636C7.48469 0.231615 7.48478 0.445934 7.35243 0.578201L3.96531 3.96531C3.9339 3.99681 3.89658 4.0218 3.85548 4.03883C3.81439 4.05586 3.77033 4.0646 3.72585 4.06456Z" fill="white"/>
</svg>
